SplineFontDB: 3.2
FontName: LingoRegular
FullName: Lingo Regular
FamilyName: Lingo
Weight: Medium
Copyright: Copyright (c) 2021, Brenton Wildes
Version: ""
ItalicAngle: 0
UnderlinePosition: 0
UnderlineWidth: 0
Ascent: 819
Descent: 205
InvalidEm: 0
sfntRevision: 0x00010000
LayerCount: 2
Layer: 0 1 "Back" 1
Layer: 1 1 "Fore" 0
XUID: [1021 312 646705238 16961]
StyleMap: 0x0040
FSType: 0
OS2Version: 3
OS2_WeightWidthSlopeOnly: 0
OS2_UseTypoMetrics: 0
CreationTime: 1624993613
ModificationTime: 1743656431
PfmFamily: 81
TTFWeight: 500
TTFWidth: 5
LineGap: 0
VLineGap: 0
Panose: 0 0 0 0 0 0 0 0 0 0
OS2TypoAscent: 765
OS2TypoAOffset: 0
OS2TypoDescent: -324
OS2TypoDOffset: 0
OS2TypoLinegap: 0
OS2WinAscent: 765
OS2WinAOffset: 0
OS2WinDescent: 324
OS2WinDOffset: 0
HheadAscent: 765
HheadAOffset: 0
HheadDescent: -324
HheadDOffset: 0
OS2SubXSize: 650
OS2SubYSize: 699
OS2SubXOff: 0
OS2SubYOff: 140
OS2SupXSize: 650
OS2SupYSize: 699
OS2SupXOff: 0
OS2SupYOff: 479
OS2StrikeYSize: 49
OS2StrikeYPos: 258
OS2CapHeight: 678
OS2XHeight: 678
OS2Vendor: 'XXXX'
OS2CodePages: 00000001.00000000
OS2UnicodeRanges: 80000001.00000001.00000000.00000000
Lookup: 260 0 0 "'mark' Mark Positioning in Latin lookup 0" { "'mark' Mark Positioning in Latin lookup 0 subtable"  } ['mark' ('DFLT' <'dflt' > 'latn' <'dflt' > ) ]
Lookup: 262 0 0 "'mkmk' Mark to Mark in Latin lookup 1" { "'mkmk' Mark to Mark in Latin lookup 1 anchor 0"  "'mkmk' Mark to Mark in Latin lookup 1 anchor 1"  } ['mkmk' ('DFLT' <'dflt' > 'latn' <'dflt' > ) ]
MarkAttachClasses: 1
DEI: 91125
ShortTable: maxp 16
  1
  0
  148
  173
  11
  91
  6
  2
  0
  1
  1
  0
  64
  0
  5
  3
EndShort
LangName: 1033 "" "" "" "+ACIAIgAA:Lingo Regular" "" "+ACIAIgAA" "" "+ACIAIgAA" "+ACIAIgAA" "Brenton Wildes" "+ACIAIgAA" "+ACIAIgAA" "+ACIAIgAA" "+ACIAIgAA" "+ACIAIgAA" "" "Lingo" "Regular"
GaspTable: 1 65535 2 0
Encoding: UnicodeBmp
Compacted: 1
UnicodeInterp: none
NameList: AGL For New Fonts
DisplaySize: -48
AntiAlias: 1
FitToEm: 0
WinInfo: 0 28 9

StartChar: .notdef
Encoding: 0 0 0
Width: 457
GlyphClass: 1
Flags: W
LayerCount: 2
Fore
SplineSet
68 48 m 1,0,-1
 388 48 l 1,1,-1
 388 627 l 1,2,-1
 68 627 l 1,3,-1
 68 48 l 1,0,-1
20 675 m 1,4,-1
 437 675 l 1,5,-1
 437 0 l 1,6,-1
 20 0 l 1,7,-1
 20 675 l 1,4,-1
EndSplineSet
Validated: 1
EndChar

StartChar: exclam
Encoding: 33 33 3
Width: 275
GlyphClass: 2
Flags: W
LayerCount: 2
Fore
SplineSet
224 13 m 0,0,1
 224 -35 224 -35 183 -58 c 0,2,3
 164 -68 164 -68 143 -68 c 0,4,5
 95 -68 95 -68 72 -27 c 0,6,7
 62 -8 62 -8 62 13 c 0,8,9
 62 61 62 61 103 84 c 0,10,11
 122 94 122 94 143 94 c 0,12,13
 191 94 191 94 214 53 c 0,14,15
 224 34 224 34 224 13 c 0,0,1
73 625 m 2,16,17
 74 654 74 654 100 685 c 0,18,19
 126 717 126 717 158 717 c 128,-1,20
 190 717 190 717 198 689 c 0,21,22
 199 685 199 685 199 678 c 2,23,-1
 199 676 l 1,24,-1
 183 230 l 2,25,26
 183 189 183 189 155 157 c 0,27,28
 138 137 138 137 121 137 c 0,29,30
 99 137 99 137 94 169 c 0,31,32
 93 172 93 172 93 179 c 2,33,-1
 73 625 l 2,16,17
EndSplineSet
Validated: 1
EndChar

StartChar: quotedbl
Encoding: 34 34 4
AltUni2: 0002ba.ffffffff.0 0002ba.ffffffff.0
Width: 459
GlyphClass: 2
Flags: W
LayerCount: 2
Fore
SplineSet
113 698 m 0,0,1
 138 718 138 718 163 718 c 128,-1,2
 188 718 188 718 197 692 c 0,3,4
 199 682 199 682 199 679 c 2,5,-1
 199 676 l 1,6,-1
 183 538 l 2,7,8
 181 504 181 504 164.5 475 c 128,-1,9
 148 446 148 446 121 444 c 0,10,11
 102 444 102 444 94 474 c 0,12,13
 93 478 93 478 93 486 c 2,14,-1
 73 625 l 1,15,16
 73 665 73 665 113 698 c 0,0,1
297 698 m 0,17,18
 322 718 322 718 347 718 c 128,-1,19
 372 718 372 718 381 692 c 0,20,21
 383 682 383 682 383 679 c 2,22,-1
 383 676 l 1,23,-1
 367 538 l 2,24,25
 365 504 365 504 348.5 475 c 128,-1,26
 332 446 332 446 305 444 c 0,27,28
 286 444 286 444 278 474 c 0,29,30
 277 478 277 478 277 486 c 2,31,-1
 257 625 l 1,32,33
 257 665 257 665 297 698 c 0,17,18
EndSplineSet
Validated: 1
EndChar

StartChar: numbersign
Encoding: 35 35 5
Width: 677
GlyphClass: 2
Flags: W
LayerCount: 2
Fore
SplineSet
303 -68 m 0,0,1
 271 -68 271 -68 265 -36 c 0,2,3
 264 -33 264 -33 264 -23.5 c 128,-1,4
 264 -14 264 -14 269 1 c 2,5,-1
 308 106 l 1,6,-1
 210 106 l 1,7,-1
 170 -1 l 2,8,9
 157 -38 157 -38 118 -60 c 0,10,11
 100 -68 100 -68 88 -68 c 0,12,13
 56 -68 56 -68 50 -36 c 0,14,15
 49 -33 49 -33 49 -23.5 c 128,-1,16
 49 -14 49 -14 54 1 c 2,17,-1
 93 106 l 1,18,-1
 65 106 l 2,19,20
 33 106 33 106 27 138 c 0,21,22
 26 141 26 141 26 148 c 0,23,24
 28 181 28 181 52.5 210.5 c 128,-1,25
 77 240 77 240 113 242 c 2,26,-1
 143 242 l 1,27,-1
 172 318 l 1,28,-1
 113 318 l 2,29,30
 81 318 81 318 75 350 c 0,31,32
 74 353 74 353 74 360 c 0,33,34
 76 391 76 391 101 421.5 c 128,-1,35
 126 452 126 452 161 454 c 2,36,-1
 221 454 l 1,37,-1
 265 570 l 2,38,39
 278 607 278 607 317 629 c 0,40,41
 335 637 335 637 347 637 c 0,42,43
 379 637 379 637 385 605 c 0,44,45
 386 602 386 602 386 592.5 c 128,-1,46
 386 583 386 583 381 568 c 2,47,-1
 338 454 l 1,48,-1
 436 454 l 1,49,-1
 480 570 l 2,50,51
 493 607 493 607 532 629 c 0,52,53
 550 637 550 637 562 637 c 0,54,55
 594 637 594 637 600 605 c 0,56,57
 601 602 601 602 601 592.5 c 128,-1,58
 601 583 601 583 596 568 c 2,59,-1
 553 454 l 1,60,-1
 613 454 l 2,61,62
 645 454 645 454 651 422 c 0,63,64
 652 419 652 419 652 412 c 0,65,66
 650 381 650 381 625 350.5 c 128,-1,67
 600 320 600 320 565 318 c 2,68,-1
 504 318 l 1,69,-1
 475 242 l 1,70,-1
 564 242 l 2,71,72
 596 242 596 242 602 210 c 0,73,74
 603 207 603 207 603 200 c 0,75,76
 601 167 601 167 576.5 137.5 c 128,-1,77
 552 108 552 108 516 106 c 2,78,-1
 425 106 l 1,79,-1
 385 -1 l 2,80,81
 372 -38 372 -38 333 -60 c 0,82,83
 315 -68 315 -68 303 -68 c 0,0,1
260 242 m 1,84,-1
 358 242 l 1,85,-1
 387 318 l 1,86,-1
 289 318 l 1,87,-1
 260 242 l 1,84,-1
EndSplineSet
Validated: 1
EndChar

StartChar: dollar
Encoding: 36 36 6
Width: 613
GlyphClass: 2
Flags: W
LayerCount: 2
Fore
SplineSet
87 67 m 0,0,1
 87 107 87 107 127 140 c 0,2,3
 152 160 152 160 174 160 c 0,4,5
 190 158 190 158 196 155 c 0,6,7
 241 128 241 128 275 119 c 1,8,-1
 275 258 l 1,9,10
 210 273 210 273 170 306 c 0,11,12
 114 355 114 355 112 429 c 0,13,14
 112 527 112 527 197 591 c 0,15,16
 248 627 248 627 293 634 c 1,17,18
 315 669 315 669 352 677 c 0,19,20
 356 678 356 678 362 678 c 0,21,22
 394 678 394 678 401 647 c 0,23,24
 402 643 402 643 402 636 c 2,25,-1
 402 634 l 1,26,27
 460 625 460 625 546 586 c 0,28,29
 565 576 565 576 567 548 c 0,30,31
 565 515 565 515 541 485.5 c 128,-1,32
 517 456 517 456 480 455 c 0,33,34
 470 455 470 455 450 463.5 c 128,-1,35
 430 472 430 472 402 483 c 1,36,-1
 402 380 l 1,37,38
 499 362 499 362 545 323 c 0,39,40
 601 273 601 273 602 199 c 0,41,42
 602 96 602 96 512 28 c 0,43,44
 486 7 486 7 448 -6.5 c 128,-1,45
 410 -20 410 -20 385 -24 c 1,46,47
 363 -59 363 -59 325 -67 c 0,48,49
 321 -68 321 -68 315 -68 c 0,50,51
 283 -68 283 -68 276 -37 c 0,52,53
 275 -33 275 -33 275 -26 c 1,54,55
 183 -17 183 -17 105 31 c 0,56,57
 88 43 88 43 87 67 c 0,0,1
275 418 m 1,58,-1
 275 503 l 1,59,60
 248 498 248 498 239 492 c 1,61,-1
 239 489 l 2,62,63
 238 485 238 485 238 480 c 0,64,65
 240 443 240 443 275 418 c 1,58,-1
402 230 m 1,66,-1
 402 109 l 1,67,68
 457 115 457 115 473 131 c 1,69,-1
 473 132 l 2,70,71
 476 140 476 140 476 147 c 0,72,73
 476 197 476 197 410 227 c 0,74,75
 406 229 406 229 402 230 c 1,66,-1
EndSplineSet
Validated: 1
EndChar

StartChar: percent
Encoding: 37 37 7
Width: 910
GlyphClass: 2
Flags: W
LayerCount: 2
Fore
SplineSet
639 678 m 0,0,1
 670 678 670 678 677 647 c 0,2,3
 678 643 678 643 678 638 c 0,4,5
 678 622 678 622 666 596 c 2,6,-1
 333 -14 l 2,7,8
 317 -48 317 -48 279 -63 c 0,9,10
 266 -68 266 -68 257 -68 c 0,11,12
 226 -68 226 -68 219 -37 c 0,13,14
 218 -33 218 -33 219 -18 c 128,-1,15
 220 -3 220 -3 229 14 c 2,16,-1
 563 625 l 2,17,18
 580 660 580 660 617 673 c 0,19,20
 630 678 630 678 639 678 c 0,0,1
528 167 m 0,21,22
 530 266 530 266 591 341 c 0,23,24
 656 415 656 415 736 416 c 0,25,26
 798 414 798 414 840 378 c 0,27,28
 912 310 912 310 915 198 c 1,29,30
 913 94 913 94 852 22.5 c 128,-1,31
 791 -49 791 -49 707 -51 c 0,32,33
 647 -49 647 -49 605 -13 c 0,34,35
 529 58 529 58 528 167 c 0,21,22
624 198 m 0,36,37
 624 124 624 124 673 78 c 0,38,39
 700 51 700 51 733 51 c 0,40,41
 734 51 734 51 736 51 c 0,42,43
 770 52 770 52 790 76 c 0,44,45
 819 113 819 113 819 167 c 0,46,47
 819 240 819 240 767 292 c 0,48,49
 742 313 742 313 709 313 c 0,50,51
 708 313 708 313 706 313 c 0,52,53
 672 312 672 312 653 289 c 0,54,55
 624 252 624 252 624 198 c 0,36,37
16 443 m 0,56,57
 18 542 18 542 79 617 c 0,58,59
 144 691 144 691 224 692 c 0,60,61
 286 690 286 690 328 654 c 0,62,63
 400 586 400 586 403 474 c 1,64,65
 401 370 401 370 340 298.5 c 128,-1,66
 279 227 279 227 195 225 c 0,67,68
 135 227 135 227 93 263 c 0,69,70
 17 334 17 334 16 443 c 0,56,57
112 474 m 0,71,72
 112 400 112 400 161 354 c 0,73,74
 188 327 188 327 221 327 c 0,75,76
 222 327 222 327 224 327 c 0,77,78
 258 328 258 328 278 352 c 0,79,80
 307 389 307 389 307 443 c 0,81,82
 307 518 307 518 259 564 c 0,83,84
 233 590 233 590 195 590 c 0,85,86
 160 588 160 588 141 565 c 0,87,88
 112 528 112 528 112 474 c 0,71,72
EndSplineSet
Validated: 1
EndChar

StartChar: ampersand
Encoding: 38 38 8
Width: 658
GlyphClass: 2
Flags: W
LayerCount: 2
Fore
SplineSet
609 69 m 0,0,1
 609 29 609 29 576.5 2 c 128,-1,2
 544 -25 544 -25 522 -25 c 0,3,4
 506 -23 506 -23 497 -16 c 128,-1,5
 488 -9 488 -9 479 0 c 0,6,7
 467 9 467 9 462 14 c 1,8,9
 392 -68 392 -68 269.5 -68 c 128,-1,10
 147 -68 147 -68 87 5 c 0,11,12
 50 51 50 51 50 116 c 0,13,14
 52 232 52 232 153 317 c 1,15,16
 105 393 105 393 105 460 c 0,17,18
 107 538 107 538 158 600 c 0,19,20
 224 678 224 678 318.5 678 c 128,-1,21
 413 678 413 678 454 613 c 0,22,23
 476 578 476 578 476 531 c 0,24,25
 474 404 474 404 350 315 c 1,26,27
 368 297 368 297 423 247 c 1,28,29
 444 282 444 282 482 291 c 0,30,31
 492 293 492 293 496 293 c 0,32,33
 528 293 528 293 534 261 c 0,34,35
 535 258 535 258 535 237 c 128,-1,36
 535 216 535 216 526 160 c 1,37,38
 532 155 532 155 596 101 c 0,39,40
 609 88 609 88 609 69 c 0,0,1
265 543 m 2,41,42
 262 542 262 542 256.5 542 c 128,-1,43
 251 542 251 542 250 541 c 128,-1,44
 249 540 249 540 244.5 538 c 128,-1,45
 240 536 240 536 240 535 c 2,46,-1
 238 534 l 1,47,-1
 237 534 l 1,48,49
 232 526 232 526 232 511 c 0,50,51
 233 463 233 463 280 398 c 1,52,53
 320 420 320 420 339 441 c 0,54,55
 350 455 350 455 350 480 c 0,56,57
 350 523 350 523 307 538 c 0,58,59
 290 543 290 543 276 543 c 2,60,-1
 265 543 l 2,41,42
382 80 m 1,61,62
 277 169 277 169 217 234 c 1,63,64
 196 220 196 220 186 207.5 c 128,-1,65
 176 195 176 195 176 167 c 0,66,67
 176 99 176 99 259 75 c 0,68,69
 291 67 291 67 330 67 c 128,-1,70
 369 67 369 67 382 80 c 1,61,62
EndSplineSet
Validated: 1
EndChar

StartChar: quotesingle
Encoding: 39 39 9
AltUni2: 0002c8.ffffffff.0 0002bc.ffffffff.0 0002b9.ffffffff.0 0002c8.ffffffff.0 0002bc.ffffffff.0 0002b9.ffffffff.0
Width: 275
GlyphClass: 2
Flags: W
LayerCount: 2
Fore
SplineSet
113 698 m 0,0,1
 138 718 138 718 163 718 c 128,-1,2
 188 718 188 718 197 692 c 0,3,4
 199 682 199 682 199 679 c 2,5,-1
 199 676 l 1,6,-1
 183 538 l 2,7,8
 181 504 181 504 164.5 475 c 128,-1,9
 148 446 148 446 121 444 c 0,10,11
 102 444 102 444 94 474 c 0,12,13
 93 478 93 478 93 486 c 2,14,-1
 73 625 l 1,15,16
 73 665 73 665 113 698 c 0,0,1
EndSplineSet
Validated: 1
EndChar

StartChar: parenleft
Encoding: 40 40 10
Width: 360
GlyphClass: 2
Flags: W
LayerCount: 2
Fore
SplineSet
228 698 m 0,0,1
 266 716 266 716 298.5 716 c 128,-1,2
 331 716 331 716 337 684 c 0,3,4
 338 681 338 681 338 674 c 0,5,6
 336 643 336 643 312 613.5 c 128,-1,7
 288 584 288 584 251 582 c 0,8,9
 246 582 246 582 241 579 c 2,10,-1
 240 579 l 1,11,12
 233 575 233 575 226 566 c 0,13,14
 169 500 169 500 155 329 c 0,15,16
 152 293 152 293 152 259 c 0,17,18
 152 122 152 122 185.5 27 c 128,-1,19
 219 -68 219 -68 259 -99 c 0,20,21
 282 -117 282 -117 299 -117 c 0,22,23
 331 -117 331 -117 337 -149 c 0,24,25
 338 -152 338 -152 338 -159 c 0,26,27
 337 -188 337 -188 311.5 -219 c 128,-1,28
 286 -250 286 -250 251 -252 c 0,29,30
 203 -250 203 -250 161 -217 c 0,31,32
 108 -171 108 -171 70 -73 c 0,33,34
 26 51 26 51 26 203.5 c 128,-1,35
 26 356 26 356 62 467 c 0,36,37
 119 643 119 643 228 698 c 0,0,1
EndSplineSet
Validated: 1
EndChar

StartChar: parenright
Encoding: 41 41 11
Width: 360
GlyphClass: 2
Flags: W
LayerCount: 2
Fore
SplineSet
60 581 m 0,0,1
 22 581 22 581 22 623 c 0,2,3
 24 655 24 655 48.5 684.5 c 128,-1,4
 73 714 73 714 109 716 c 0,5,6
 157 714 157 714 199 681 c 0,7,8
 252 635 252 635 290 537 c 0,9,10
 334 413 334 413 334 261 c 128,-1,11
 334 109 334 109 297 -3 c 0,12,13
 240 -179 240 -179 131 -234 c 0,14,15
 94 -252 94 -252 60 -252 c 0,16,17
 22 -252 22 -252 22 -210 c 0,18,19
 24 -178 24 -178 48 -148.5 c 128,-1,20
 72 -119 72 -119 109 -118 c 0,21,22
 114 -118 114 -118 119 -115 c 2,23,-1
 120 -115 l 2,24,25
 124 -112 124 -112 133 -102 c 0,26,27
 190 -35 190 -35 205 131 c 0,28,29
 208 168 208 168 208 205 c 0,30,31
 208 340 208 340 174 436 c 128,-1,32
 140 532 140 532 100 563 c 0,33,34
 78 581 78 581 60 581 c 0,0,1
EndSplineSet
Validated: 1
EndChar

StartChar: asterisk
Encoding: 42 42 12
Width: 571
GlyphClass: 2
Flags: W
LayerCount: 2
Fore
SplineSet
54 557 m 0,0,1
 54 597 54 597 94 630 c 0,2,3
 119 650 119 650 135 650 c 128,-1,4
 151 650 151 650 157 647 c 2,5,-1
 219 625 l 1,6,-1
 219 672 l 2,7,8
 220 701 220 701 246 732 c 0,9,10
 270 763 270 763 304 764 c 0,11,12
 305 764 305 764 307 764 c 0,13,14
 339 764 339 764 344 733 c 0,15,16
 345 730 345 730 345 723 c 2,17,-1
 345 598 l 1,18,-1
 469 620 l 2,19,20
 472 621 472 621 478 621 c 0,21,22
 510 621 510 621 516 589 c 0,23,24
 517 586 517 586 517 579 c 0,25,26
 517 540 517 540 478 505 c 0,27,28
 459 489 459 489 440 486 c 2,29,-1
 393 478 l 1,30,-1
 427 421 l 2,31,32
 431 411 431 411 431 394 c 0,33,34
 431 390 431 390 431 386 c 0,35,36
 430 364 430 364 406 334.5 c 128,-1,37
 382 305 382 305 345 304 c 0,38,39
 322 306 322 306 312 322 c 2,40,-1
 258 415 l 1,41,-1
 209 355 l 2,42,43
 184 324 184 324 145 322 c 1,44,45
 110 330 110 330 106 362 c 1,46,47
 108 394 108 394 130 422 c 2,48,-1
 180 480 l 1,49,-1
 79 517 l 2,50,51
 55 530 55 530 54 557 c 0,0,1
EndSplineSet
Validated: 1
EndChar

StartChar: plus
Encoding: 43 43 13
Width: 544
GlyphClass: 2
Flags: W
LayerCount: 2
Fore
SplineSet
209 430 m 2,0,1
 211 462 211 462 235.5 491.5 c 128,-1,2
 260 521 260 521 294 522 c 0,3,4
 295 522 295 522 296 522 c 0,5,6
 328 522 328 522 334 491 c 0,7,8
 335 488 335 488 335 481 c 2,9,-1
 335 366 l 1,10,-1
 453 366 l 2,11,12
 485 366 485 366 492 335 c 0,13,14
 493 331 493 331 493 324 c 0,15,16
 491 294 491 294 465.5 262.5 c 128,-1,17
 440 231 440 231 406 230 c 2,18,-1
 335 230 l 1,19,-1
 335 166 l 2,20,21
 334 137 334 137 308 106 c 0,22,23
 284 75 284 75 250 74 c 0,24,25
 249 74 249 74 247 74 c 0,26,27
 215 74 215 74 210 105 c 0,28,29
 209 108 209 108 209 115 c 2,30,-1
 209 230 l 1,31,-1
 90 230 l 2,32,33
 58 230 58 230 52 262 c 0,34,35
 51 265 51 265 51 272 c 0,36,37
 53 303 53 303 78 333.5 c 128,-1,38
 103 364 103 364 138 366 c 2,39,-1
 209 366 l 1,40,-1
 209 430 l 2,0,1
EndSplineSet
Validated: 1
EndChar

StartChar: comma
Encoding: 44 44 14
Width: 280
GlyphClass: 2
Flags: W
LayerCount: 2
Fore
SplineSet
99 -162 m 0,0,1
 73 -162 73 -162 73 -136 c 0,2,3
 73 -120 73 -120 92 -104 c 0,4,5
 112 -87 112 -87 112 -69 c 0,6,7
 112 -50 112 -50 88 -30 c 0,8,9
 65 -10 65 -10 62 3.5 c 128,-1,10
 59 17 59 17 59 22 c 0,11,12
 59 72 59 72 106 89 c 0,13,14
 124 94 124 94 140 94 c 0,15,16
 194 94 194 94 214 41 c 0,17,18
 220 23 220 23 220 2 c 0,19,20
 220 -48 220 -48 176 -109 c 0,21,22
 136 -161 136 -161 99 -162 c 0,0,1
EndSplineSet
Validated: 1
EndChar

StartChar: hyphen
Encoding: 45 45 15
Width: 551
GlyphClass: 2
Flags: W
LayerCount: 2
Fore
SplineSet
410 108 m 2,0,-1
 94 108 l 2,1,2
 62 108 62 108 56 140 c 0,3,4
 55 143 55 143 55 150 c 0,5,6
 56 179 56 179 81.5 210 c 128,-1,7
 107 241 107 241 142 243 c 2,8,-1
 457 243 l 2,9,10
 489 243 489 243 496 212 c 0,11,12
 497 208 497 208 497 201 c 0,13,14
 495 171 495 171 470 140.5 c 128,-1,15
 445 110 445 110 410 108 c 2,0,-1
EndSplineSet
Validated: 1
EndChar

StartChar: period
Encoding: 46 46 16
Width: 285
GlyphClass: 2
Flags: W
LayerCount: 2
Fore
SplineSet
224 13 m 0,0,1
 224 -35 224 -35 183 -58 c 0,2,3
 164 -68 164 -68 143 -68 c 0,4,5
 95 -68 95 -68 72 -27 c 0,6,7
 62 -8 62 -8 62 13 c 0,8,9
 62 61 62 61 103 84 c 0,10,11
 122 94 122 94 143 94 c 0,12,13
 191 94 191 94 214 53 c 0,14,15
 224 34 224 34 224 13 c 0,0,1
EndSplineSet
Validated: 1
EndChar

StartChar: slash
Encoding: 47 47 17
Width: 435
GlyphClass: 2
Flags: W
LayerCount: 2
Fore
SplineSet
294 643 m 0,0,1
 322 676 322 676 355 677 c 0,2,3
 356 677 356 677 357 677 c 0,4,5
 388 677 388 677 395 647 c 0,6,7
 396 643 396 643 396 631.5 c 128,-1,8
 396 620 396 620 391 608 c 2,9,-1
 160 -2 l 2,10,11
 154 -17 154 -17 141 -33 c 0,12,13
 113 -66 113 -66 80 -67 c 0,14,15
 79 -67 79 -67 78 -67 c 0,16,17
 47 -67 47 -67 40 -37 c 0,18,19
 39 -33 39 -33 39 -21.5 c 128,-1,20
 39 -10 39 -10 44 2 c 2,21,-1
 275 612 l 2,22,23
 281 627 281 627 294 643 c 0,0,1
EndSplineSet
Validated: 1
EndChar

StartChar: zero
Encoding: 48 48 18
Width: 676
GlyphClass: 2
Flags: W
LayerCount: 2
Fore
SplineSet
44 281 m 0,0,1
 46 442 46 442 143 559 c 0,2,3
 198 623 198 623 259.5 650.5 c 128,-1,4
 321 678 321 678 374 678 c 0,5,6
 464 676 464 676 535 617 c 0,7,8
 655 518 655 518 655 332 c 0,9,10
 654 170 654 170 556 51 c 0,11,12
 504 -11 504 -11 441 -39.5 c 128,-1,13
 378 -68 378 -68 326 -68 c 0,14,15
 236 -66 236 -66 166 -8 c 0,16,17
 72 71 72 71 49 213 c 0,18,19
 44 251 44 251 44 281 c 0,0,1
222 494 m 0,20,21
 170 432 170 432 170 326 c 128,-1,22
 170 220 170 220 238 138 c 0,23,24
 294 68 294 68 374 68 c 0,25,26
 435 69 435 69 477 117 c 0,27,28
 529 181 529 181 529 287 c 128,-1,29
 529 393 529 393 462 472 c 0,30,31
 450 487 450 487 435 500 c 0,32,33
 384 542 384 542 326 542 c 2,34,35
 326 542 326 542 324 542 c 0,36,37
 264 541 264 541 222 494 c 0,20,21
EndSplineSet
Validated: 1
EndChar

StartChar: one
Encoding: 49 49 19
Width: 291
GlyphClass: 2
Flags: W
LayerCount: 2
Fore
SplineSet
232 26 m 2,0,1
 230 -7 230 -7 205.5 -36.5 c 128,-1,2
 181 -66 181 -66 147 -67 c 0,3,4
 146 -67 146 -67 145 -67 c 0,5,6
 113 -67 113 -67 107 -36 c 0,7,8
 106 -33 106 -33 106 -26 c 2,9,-1
 106 478 l 1,10,11
 80 455 80 455 51 453 c 0,12,13
 19 453 19 453 13 485 c 0,14,15
 12 488 12 488 12 495 c 0,16,17
 14 527 14 527 40 558 c 2,18,-1
 124 648 l 2,19,20
 154 676 154 676 193 678 c 0,21,22
 230 676 230 676 232 636 c 2,23,-1
 232 26 l 2,0,1
EndSplineSet
Validated: 1
EndChar

StartChar: two
Encoding: 50 50 20
Width: 527
GlyphClass: 2
Flags: W
LayerCount: 2
Fore
SplineSet
62 -67 m 2,0,1
 24 -67 24 -67 24 -25 c 0,2,3
 24 -14 24 -14 27 -5 c 0,4,5
 57 107 57 107 187 228 c 0,6,7
 213 254 213 254 260 295.5 c 128,-1,8
 307 337 307 337 323.5 356.5 c 128,-1,9
 340 376 340 376 351 394 c 1,10,-1
 352 395 l 1,11,12
 358 407 358 407 358 421 c 0,13,14
 356 465 356 465 316 501 c 0,15,16
 267 542 267 542 199.5 542 c 128,-1,17
 132 542 132 542 80 521 c 0,18,19
 65 516 65 516 56 516 c 0,20,21
 24 516 24 516 18 548 c 0,22,23
 17 551 17 551 17 558 c 0,24,25
 17 599 17 599 57 632 c 0,26,27
 70 642 70 642 80 646 c 0,28,29
 155 677 155 677 240 677 c 0,30,31
 348 675 348 675 416 618 c 0,32,33
 483 560 483 560 485 472 c 0,34,35
 484 387 484 387 410 300 c 0,36,37
 377 261 377 261 291.5 184.5 c 128,-1,38
 206 108 206 108 178 69 c 1,39,-1
 476 68 l 2,40,41
 508 68 508 68 514 36 c 0,42,43
 515 33 515 33 515 26 c 0,44,45
 513 -7 513 -7 488.5 -36.5 c 128,-1,46
 464 -66 464 -66 428 -68 c 2,47,-1
 62 -67 l 2,0,1
EndSplineSet
Validated: 1
EndChar

StartChar: three
Encoding: 51 51 21
Width: 502
GlyphClass: 2
Flags: W
LayerCount: 2
Fore
SplineSet
195 252 m 2,0,-1
 125 252 l 2,1,2
 93 252 93 252 87 284 c 0,3,4
 86 287 86 287 86 294 c 0,5,6
 87 323 87 323 112.5 354 c 128,-1,7
 138 385 138 385 173 387 c 2,8,-1
 222 387 l 2,9,10
 274 388 274 388 298 414 c 0,11,12
 306 425 306 425 306 438 c 0,13,14
 304 478 304 478 268 509 c 0,15,16
 226 542 226 542 179.5 542 c 128,-1,17
 133 542 133 542 104 526 c 0,18,19
 86 518 86 518 74 518 c 0,20,21
 42 518 42 518 36 550 c 0,22,23
 35 553 35 553 35 560 c 0,24,25
 35 599 35 599 72 632 c 1,26,27
 131 676 131 676 217 676 c 0,28,29
 218 676 218 676 220 676 c 0,30,31
 308 675 308 675 368 627 c 0,32,33
 430 572 430 572 432 489 c 0,34,35
 430 415 430 415 381 352 c 1,36,37
 478 288 478 288 483 186 c 1,38,39
 482 106 482 106 426 39 c 0,40,41
 332 -68 332 -68 195 -68 c 0,42,43
 112 -68 112 -68 39 -39 c 0,44,45
 16 -28 16 -28 16 0.5 c 128,-1,46
 16 29 16 29 41.5 60 c 128,-1,47
 67 91 67 91 102 93 c 0,48,49
 112 93 112 93 119 90 c 0,50,51
 173 69 173 69 240 69 c 0,52,53
 243 69 243 69 246 69 c 0,54,55
 317 70 317 70 347 104 c 0,56,57
 357 117 357 117 357 135 c 0,58,59
 357 193 357 193 289 229 c 0,60,61
 243 252 243 252 195 252 c 2,0,-1
EndSplineSet
Validated: 1
EndChar

StartChar: four
Encoding: 52 52 22
Width: 555
GlyphClass: 2
Flags: W
LayerCount: 2
Fore
SplineSet
382 108 m 1,0,-1
 58 108 l 2,1,2
 26 108 26 108 20 140 c 0,3,4
 19 143 19 143 20 158 c 128,-1,5
 21 173 21 173 36 198 c 2,6,-1
 324 633 l 2,7,8
 352 678 352 678 395 678 c 0,9,10
 427 678 427 678 433 646 c 0,11,12
 434 643 434 643 433 628 c 128,-1,13
 432 613 432 613 418 588 c 2,14,-1
 189 243 l 1,15,-1
 382 243 l 1,16,-1
 382 400 l 2,17,18
 384 431 384 431 409 461.5 c 128,-1,19
 434 492 434 492 468 493 c 0,20,21
 469 493 469 493 470 493 c 0,22,23
 502 493 502 493 507 462 c 0,24,25
 508 459 508 459 508 452 c 2,26,-1
 508 26 l 2,27,28
 506 -4 506 -4 480 -36 c 128,-1,29
 454 -68 454 -68 422 -68 c 0,30,31
 421 -68 421 -68 421 -68 c 2,32,33
 389 -68 389 -68 383 -36 c 0,34,35
 382 -33 382 -33 382 -26 c 2,36,-1
 382 108 l 1,0,-1
EndSplineSet
Validated: 1
EndChar

StartChar: five
Encoding: 53 53 23
Width: 519
GlyphClass: 2
Flags: W
LayerCount: 2
Fore
SplineSet
249 68 m 0,0,1
 368 68 368 68 368 160 c 0,2,3
 366 223 366 223 317 265 c 1,4,5
 262 303 262 303 180 303 c 2,6,-1
 139 303 l 1,7,8
 119 290 119 290 99 290 c 0,9,10
 67 290 67 290 61 322 c 0,11,12
 60 325 60 325 60 332 c 2,13,-1
 60 584 l 2,14,15
 61 613 61 613 86.5 644 c 128,-1,16
 112 675 112 675 147 677 c 2,17,-1
 431 677 l 2,18,19
 463 677 463 677 469 645 c 0,20,21
 470 642 470 642 470 635 c 0,22,23
 469 606 469 606 443.5 575 c 128,-1,24
 418 544 418 544 383 542 c 2,25,-1
 186 542 l 1,26,-1
 186 438 l 1,27,-1
 249 438 l 2,28,29
 373 438 373 438 444 355 c 0,30,31
 494 293 494 293 494 211 c 0,32,33
 492 115 492 115 427 36 c 0,34,35
 337 -67 337 -67 201 -68 c 0,36,37
 118 -68 118 -68 45 -39 c 0,38,39
 24 -29 24 -29 22 0 c 0,40,41
 24 32 24 32 48.5 61.5 c 128,-1,42
 73 91 73 91 109 93 c 0,43,44
 118 93 118 93 125 90 c 0,45,46
 181 68 181 68 249 68 c 0,0,1
EndSplineSet
Validated: 1
EndChar

StartChar: six
Encoding: 54 54 24
Width: 604
GlyphClass: 2
Flags: W
LayerCount: 2
Fore
SplineSet
303 312 m 0,0,1
 226 310 226 310 195 230 c 1,2,-1
 189 218 l 1,3,4
 226 105 226 105 305 76 c 0,5,6
 329 68 329 68 351 68 c 0,7,8
 404 70 404 70 432 100 c 0,9,10
 455 129 455 129 455 173 c 0,11,12
 455 243 455 243 393 285 c 0,13,14
 352 312 352 312 303 312 c 0,0,1
582 224 m 0,15,16
 580 118 580 118 507 31 c 0,17,18
 424 -68 424 -68 303 -68 c 0,19,20
 225 -66 225 -66 164 -16 c 0,21,22
 79 54 79 54 53 192 c 0,23,24
 45 238 45 238 45 281 c 0,25,26
 45 447 45 447 141 567 c 0,27,28
 142 569 142 569 145 572 c 0,29,30
 236 677 236 677 351 678 c 0,31,32
 444 676 444 676 516 607 c 0,33,34
 528 595 528 595 528 572 c 0,35,36
 528 547 528 547 502 515 c 0,37,38
 476 484 476 484 441 482 c 0,39,40
 427 482 427 482 404 502 c 0,41,42
 402 503 402 503 400 505 c 0,43,44
 355 543 355 543 305 543 c 0,45,46
 304 542 304 542 304 542 c 1,47,48
 254 542 254 542 224 507 c 0,49,50
 185 462 185 462 174 374 c 1,51,52
 254 445 254 445 351 447 c 0,53,54
 465 447 465 447 531 369 c 0,55,56
 582 308 582 308 582 224 c 0,15,16
EndSplineSet
Validated: 1
EndChar

StartChar: seven
Encoding: 55 55 25
Width: 472
GlyphClass: 2
Flags: W
LayerCount: 2
Fore
SplineSet
80 677 m 2,0,-1
 435 677 l 2,1,2
 467 677 467 677 474 646 c 0,3,4
 475 642 475 642 475 631 c 128,-1,5
 475 620 475 620 468 605 c 2,6,-1
 221 -4 l 2,7,8
 208 -40 208 -40 170 -60 c 0,9,10
 152 -68 152 -68 140 -68 c 0,11,12
 108 -68 108 -68 102 -36 c 0,13,14
 101 -33 101 -33 101 -26 c 0,15,16
 101 -11 101 -11 108 4 c 2,17,-1
 326 542 l 1,18,-1
 32 542 l 2,19,20
 0 542 0 542 -6 574 c 0,21,22
 -7 577 -7 577 -7 584 c 0,23,24
 -5 616 -5 616 19.5 645.5 c 128,-1,25
 44 675 44 675 80 677 c 2,0,-1
EndSplineSet
Validated: 1
EndChar

StartChar: eight
Encoding: 56 56 26
Width: 549
GlyphClass: 2
Flags: W
LayerCount: 2
Fore
SplineSet
303 67 m 0,0,1
 375 69 375 69 394 90 c 1,2,-1
 400 105 l 2,3,4
 402 119 402 119 402 127 c 0,5,6
 400 181 400 181 367 207.5 c 128,-1,7
 334 234 334 234 259 250 c 0,8,9
 242 253 242 253 226 258 c 1,10,-1
 222 256 l 1,11,12
 171 235 171 235 169 178 c 0,13,14
 169 108 169 108 236 80 c 0,15,16
 266 67 266 67 303 67 c 0,0,1
228 421 m 0,17,18
 252 400 252 400 325 384 c 1,19,20
 345 426 345 426 345 459 c 0,21,22
 345 519 345 519 284 537 c 0,23,24
 264 543 264 543 246 543 c 0,25,26
 215 543 215 543 195 531 c 1,27,28
 189 512 189 512 189 503 c 0,29,30
 190 453 190 453 228 421 c 0,17,18
121 311 m 1,31,32
 63 366 63 366 63 452 c 0,33,34
 65 538 65 538 116 598 c 0,35,36
 184 678 184 678 292 678 c 128,-1,37
 400 678 400 678 447 603 c 0,38,39
 471 562 471 562 471 510 c 0,40,41
 471 428 471 428 426 351 c 1,42,43
 526 294 526 294 528 178 c 0,44,45
 526 88 526 88 473 24 c 0,46,47
 393 -68 393 -68 263.5 -68 c 128,-1,48
 134 -68 134 -68 77 11 c 0,49,50
 43 58 43 58 43 126 c 0,51,52
 45 230 45 230 121 311 c 1,31,32
EndSplineSet
Validated: 1
EndChar

StartChar: nine
Encoding: 57 57 27
Width: 594
GlyphClass: 2
Flags: W
LayerCount: 2
Fore
SplineSet
312 298 m 0,0,1
 389 300 389 300 420 380 c 1,2,-1
 426 392 l 1,3,4
 388 506 388 506 310 535 c 0,5,6
 286 543 286 543 264 543 c 0,7,8
 212 542 212 542 183 510 c 0,9,10
 160 481 160 481 160 437 c 0,11,12
 160 367 160 367 222 325 c 0,13,14
 262 298 262 298 312 298 c 0,0,1
34 386 m 0,15,16
 36 494 36 494 108 580 c 0,17,18
 190 678 190 678 312 678 c 0,19,20
 390 677 390 677 452 627 c 0,21,22
 538 556 538 556 562 417 c 0,23,24
 570 371 570 371 570 330 c 0,25,26
 570 166 570 166 477 48 c 0,27,28
 471 40 471 40 469 38 c 0,29,30
 378 -67 378 -67 264 -68 c 0,31,32
 171 -66 171 -66 99 3 c 0,33,34
 87 16 87 16 87 39 c 0,35,36
 88 64 88 64 114 95 c 128,-1,37
 140 126 140 126 174 128 c 0,38,39
 188 128 188 128 211 108 c 0,40,41
 213 107 213 107 215 105 c 0,42,43
 257 69 257 69 309 69 c 0,44,45
 310 69 310 69 312 69 c 0,46,47
 366 70 366 70 391 103 c 0,48,49
 431 149 431 149 441 235 c 1,50,-1
 441 237 l 1,51,52
 358 163 358 163 264 163 c 0,53,54
 150 163 150 163 84 242 c 0,55,56
 34 303 34 303 34 386 c 0,15,16
EndSplineSet
Validated: 1
EndChar

StartChar: colon
Encoding: 58 58 28
Width: 285
GlyphClass: 2
Flags: W
LayerCount: 2
Fore
SplineSet
224 13 m 0,0,1
 224 -35 224 -35 183 -58 c 0,2,3
 164 -68 164 -68 143 -68 c 0,4,5
 95 -68 95 -68 72 -27 c 0,6,7
 62 -8 62 -8 62 13 c 0,8,9
 62 61 62 61 103 84 c 0,10,11
 122 94 122 94 143 94 c 0,12,13
 191 94 191 94 214 53 c 0,14,15
 224 34 224 34 224 13 c 0,0,1
224 361 m 0,16,17
 224 313 224 313 183 290 c 0,18,19
 164 280 164 280 143 280 c 0,20,21
 95 280 95 280 72 321 c 0,22,23
 62 340 62 340 62 361 c 0,24,25
 62 409 62 409 103 432 c 0,26,27
 122 442 122 442 143 442 c 0,28,29
 191 442 191 442 214 401 c 0,30,31
 224 382 224 382 224 361 c 0,16,17
EndSplineSet
Validated: 1
EndChar

StartChar: semicolon
Encoding: 59 59 29
Width: 280
GlyphClass: 2
Flags: W
LayerCount: 2
Fore
SplineSet
99 -162 m 0,0,1
 73 -162 73 -162 73 -136 c 0,2,3
 73 -120 73 -120 92 -104 c 0,4,5
 112 -87 112 -87 112 -69 c 0,6,7
 112 -50 112 -50 88 -30 c 0,8,9
 65 -10 65 -10 62 3.5 c 128,-1,10
 59 17 59 17 59 22 c 0,11,12
 59 72 59 72 106 89 c 0,13,14
 124 94 124 94 140 94 c 0,15,16
 194 94 194 94 214 41 c 0,17,18
 220 23 220 23 220 2 c 0,19,20
 220 -48 220 -48 176 -109 c 0,21,22
 136 -161 136 -161 99 -162 c 0,0,1
224 361 m 0,23,24
 224 313 224 313 183 290 c 0,25,26
 164 280 164 280 143 280 c 0,27,28
 95 280 95 280 72 321 c 0,29,30
 62 340 62 340 62 361 c 0,31,32
 62 409 62 409 103 432 c 0,33,34
 122 442 122 442 143 442 c 0,35,36
 191 442 191 442 214 401 c 0,37,38
 224 382 224 382 224 361 c 0,23,24
EndSplineSet
Validated: 1
EndChar

StartChar: less
Encoding: 60 60 30
Width: 607
GlyphClass: 2
Flags: W
LayerCount: 2
Fore
SplineSet
549 500 m 0,0,1
 582 500 582 500 587 467 c 0,2,3
 588 464 588 464 588 459 c 0,4,5
 588 419 588 419 550 386 c 0,6,7
 534 374 534 374 523 370 c 2,8,-1
 266 272 l 1,9,-1
 564 160 l 2,10,11
 586 150 586 150 588 121 c 0,12,13
 586 90 586 90 564 61 c 0,14,15
 538 30 538 30 501 28 c 0,16,17
 491 28 491 28 485 30 c 2,18,-1
 40 199 l 2,19,20
 18 210 18 210 16 238 c 0,21,22
 16 278 16 278 54 311 c 0,23,24
 70 323 70 323 81 327 c 2,25,-1
 526 496 l 2,26,27
 535 500 535 500 549 500 c 0,0,1
EndSplineSet
Validated: 1
EndChar

StartChar: equal
Encoding: 61 61 31
Width: 551
GlyphClass: 2
Flags: W
LayerCount: 2
Fore
SplineSet
387 108 m 2,0,-1
 71 108 l 2,1,2
 39 108 39 108 33 140 c 0,3,4
 32 143 32 143 32 150 c 0,5,6
 33 179 33 179 58.5 210 c 128,-1,7
 84 241 84 241 119 243 c 2,8,-1
 434 243 l 2,9,10
 466 243 466 243 473 212 c 0,11,12
 474 208 474 208 474 201 c 0,13,14
 472 171 472 171 447 140.5 c 128,-1,15
 422 110 422 110 387 108 c 2,0,-1
387 333 m 2,16,-1
 71 333 l 2,17,18
 39 333 39 333 33 365 c 0,19,20
 32 368 32 368 32 375 c 0,21,22
 33 404 33 404 58.5 435 c 128,-1,23
 84 466 84 466 119 468 c 2,24,-1
 434 468 l 2,25,26
 466 468 466 468 473 437 c 0,27,28
 474 433 474 433 474 426 c 0,29,30
 472 396 472 396 447 365.5 c 128,-1,31
 422 335 422 335 387 333 c 2,16,-1
EndSplineSet
Validated: 1
EndChar

StartChar: greater
Encoding: 62 62 32
Width: 594
GlyphClass: 2
Flags: W
LayerCount: 2
Fore
SplineSet
58 28 m 0,0,1
 19 28 19 28 19 68.5 c 128,-1,2
 19 109 19 109 57 142 c 0,3,4
 73 154 73 154 84 158 c 2,5,-1
 341 255 l 1,6,-1
 43 368 l 2,7,8
 20 378 20 378 19 407 c 0,9,10
 21 438 21 438 45.5 468 c 128,-1,11
 70 498 70 498 106 500 c 0,12,13
 116 500 116 500 122 498 c 2,14,-1
 567 329 l 2,15,16
 590 318 590 318 591 290 c 0,17,18
 591 250 591 250 553 217 c 0,19,20
 537 205 537 205 526 201 c 2,21,-1
 81 32 l 2,22,23
 72 28 72 28 58 28 c 0,0,1
EndSplineSet
Validated: 1
EndChar

StartChar: question
Encoding: 63 63 33
Width: 527
GlyphClass: 2
Flags: W
LayerCount: 2
Fore
SplineSet
316 13 m 0,0,1
 316 -35 316 -35 275 -58 c 0,2,3
 256 -68 256 -68 244 -68 c 0,4,5
 196 -68 196 -68 174 -39 c 0,6,7
 161 -26 161 -26 157.5 -8.5 c 128,-1,8
 154 9 154 9 154 13 c 0,9,10
 154 62 154 62 196 84 c 0,11,12
 213 94 213 94 235 94 c 0,13,14
 283 94 283 94 306 53 c 0,15,16
 316 34 316 34 316 13 c 0,0,1
223 135 m 0,17,18
 191 135 191 135 184 166 c 0,19,20
 183 170 183 170 183 176 c 0,21,22
 183 223 183 223 273 298 c 0,23,24
 344 359 344 359 361 379.5 c 128,-1,25
 378 400 378 400 378 423 c 0,26,27
 378 491 378 491 301 524 c 0,28,29
 259 542 259 542 206.5 542 c 128,-1,30
 154 542 154 542 99 521 c 0,31,32
 84 516 84 516 76 516 c 0,33,34
 44 516 44 516 37 547 c 0,35,36
 36 551 36 551 36 558 c 0,37,38
 36 599 36 599 76 632 c 0,39,40
 89 642 89 642 99 646 c 0,41,42
 174 677 174 677 258 677 c 0,43,44
 380 677 380 677 451 608 c 0,45,46
 505 554 505 554 505 477.5 c 128,-1,47
 505 401 505 401 438 337 c 0,48,49
 427 326 427 326 403 305 c 0,50,51
 342 252 342 252 322 218 c 0,52,53
 312 198 312 198 305.5 177 c 128,-1,54
 299 156 299 156 258 141 c 0,55,56
 240 135 240 135 223 135 c 0,17,18
EndSplineSet
Validated: 1
EndChar

StartChar: at
Encoding: 64 64 34
Width: 977
GlyphClass: 2
Flags: W
AnchorPoint: "Anchor-1" 489 819 basechar 0
AnchorPoint: "Anchor-0" 489 -205 basechar 0
LayerCount: 2
Fore
SplineSet
282 274 m 1,0,-1
 282 169 l 1,1,-1
 384 169 l 1,2,-1
 384 274 l 1,3,-1
 282 274 l 1,0,-1
589 481 m 1,4,-1
 589 376 l 1,5,-1
 691 376 l 1,6,-1
 691 481 l 1,7,-1
 589 481 l 1,4,-1
280 482 m 1,8,-1
 280 377 l 1,9,-1
 383 377 l 1,10,-1
 383 482 l 1,11,-1
 280 482 l 1,8,-1
197.5 577.5 m 128,-1,13
 309 688 309 688 486.5 688 c 128,-1,14
 664 688 664 688 778.5 577 c 128,-1,15
 893 466 893 466 893 306 c 128,-1,16
 893 146 893 146 778.5 36.5 c 128,-1,17
 664 -73 664 -73 486.5 -73 c 128,-1,18
 309 -73 309 -73 197.5 36 c 128,-1,19
 86 145 86 145 86 306 c 128,-1,12
 86 467 86 467 197.5 577.5 c 128,-1,13
588 169 m 1,20,-1
 487 169 l 1,21,-1
 386 169 l 1,22,-1
 386 64 l 1,23,-1
 487 65 l 1,24,-1
 588 65 l 1,25,-1
 588 169 l 1,20,-1
589 169 m 1,26,-1
 691 169 l 1,27,-1
 691 274 l 1,28,-1
 589 274 l 1,29,-1
 589 169 l 1,26,-1
EndSplineSet
Validated: 1
EndChar

StartChar: A
Encoding: 65 65 35
Width: 600
GlyphClass: 2
Flags: W
LayerCount: 2
Fore
SplineSet
29 -68 m 0,0,1
 -3 -68 -3 -68 -9 -36 c 0,2,3
 -10 -33 -10 -33 -10 -21.5 c 128,-1,4
 -10 -10 -10 -10 -5 2 c 2,5,-1
 226 612 l 2,6,7
 240 650 240 650 278 670 c 0,8,9
 296 678 296 678 308 678 c 0,10,11
 334 676 334 676 344 654 c 2,12,-1
 504 233 l 2,13,14
 508 226 508 226 510 217 c 2,15,-1
 575 44 l 2,16,17
 579 35 579 35 579 26 c 0,18,19
 577 -5 577 -5 552 -35.5 c 128,-1,20
 527 -66 527 -66 492 -68 c 0,21,22
 466 -66 466 -66 456 -44 c 2,23,-1
 395 115 l 1,24,-1
 155 115 l 1,25,-1
 111 -2 l 2,26,27
 97 -40 97 -40 59 -60 c 0,28,29
 41 -68 41 -68 29 -68 c 0,0,1
275 432 m 1,30,-1
 206 250 l 1,31,-1
 344 250 l 1,32,-1
 275 432 l 1,30,-1
EndSplineSet
Validated: 1
EndChar

StartChar: B
Encoding: 66 66 36
Width: 613
GlyphClass: 2
Flags: W
LayerCount: 2
Fore
SplineSet
96 -68 m 0,0,1
 64 -68 64 -68 58 -36 c 0,2,3
 57 -33 57 -33 57 -26 c 2,4,-1
 57 585 l 2,5,6
 58 614 58 614 83.5 645 c 128,-1,7
 109 676 109 676 144 678 c 0,8,9
 169 676 169 676 179 657 c 1,10,11
 242 677 242 677 301 677 c 0,12,13
 416 677 416 677 483 607 c 0,14,15
 530 560 530 560 530 489 c 0,16,17
 530 415 530 415 475 351 c 1,18,19
 577 295 577 295 583 197 c 1,20,-1
 583 186 l 2,21,22
 582 112 582 112 526 45 c 0,23,24
 434 -68 434 -68 273 -68 c 0,25,26
 210 -68 210 -68 144 -48 c 1,27,28
 118 -68 118 -68 96 -68 c 0,0,1
183 252 m 1,29,-1
 183 93 l 1,30,31
 192 93 192 93 198 90 c 0,32,33
 254 68 254 68 328 68 c 0,34,35
 406 68 406 68 449 111 c 0,36,37
 457 122 457 122 457 135 c 0,38,39
 455 174 455 174 418 205 c 0,40,41
 359 252 359 252 273 252 c 2,42,-1
 183 252 l 1,29,-1
183 532 m 1,43,-1
 183 387 l 1,44,-1
 301 387 l 2,45,46
 364 387 364 387 395 415 c 0,47,48
 396 418 396 418 401 424 c 0,49,50
 405 430 405 430 405 439 c 0,51,52
 405 450 405 450 398 466 c 0,53,54
 376 518 376 518 304 536 c 0,55,56
 278 542 278 542 249 542 c 128,-1,57
 220 542 220 542 183 532 c 1,43,-1
EndSplineSet
Validated: 1
EndChar

StartChar: C
Encoding: 67 67 37
Width: 650
GlyphClass: 2
Flags: W
LayerCount: 2
Fore
SplineSet
565 117 m 0,0,1
 597 117 597 117 603 85 c 0,2,3
 604 82 604 82 604 75 c 0,4,5
 604 31 604 31 556 -5 c 1,6,7
 458 -68 458 -68 350 -68 c 0,8,9
 221 -66 221 -66 127 13 c 0,10,11
 4 117 4 117 4 281 c 0,12,13
 6 421 6 421 98 534 c 0,14,15
 220 678 220 678 398 678 c 0,16,17
 502 676 502 676 587 623 c 0,18,19
 602 612 602 612 604 587 c 0,20,21
 602 554 602 554 579 525.5 c 128,-1,22
 556 497 556 497 517 495 c 0,23,24
 501 497 501 497 496 500 c 0,25,26
 429 543 429 543 350 543 c 0,27,28
 242 542 242 542 177 468 c 0,29,30
 130 410 130 410 130 332 c 0,31,32
 130 213 130 213 226 131 c 0,33,34
 301 68 301 68 398 68 c 0,35,36
 475 70 475 70 526 103 c 0,37,38
 549 117 549 117 565 117 c 0,0,1
EndSplineSet
Validated: 1
EndChar

StartChar: D
Encoding: 68 68 38
Width: 687
GlyphClass: 2
Flags: W
LayerCount: 2
Fore
SplineSet
145 -47 m 1,0,1
 120 -68 120 -68 92 -68 c 2,2,3
 92 -68 92 -68 91 -68 c 0,4,5
 64 -68 64 -68 58 -36 c 0,6,7
 57 -33 57 -33 57 -26 c 2,8,-1
 57 585 l 2,9,10
 58 614 58 614 83.5 645 c 128,-1,11
 109 676 109 676 144 678 c 0,12,13
 171 676 171 676 180 653 c 1,14,15
 246 678 246 678 312 678 c 0,16,17
 442 676 442 676 536 597 c 0,18,19
 658 496 658 496 658 330 c 0,20,21
 656 190 656 190 564 77 c 0,22,23
 466 -40 466 -40 322 -63 c 0,24,25
 290 -68 290 -68 246.5 -68 c 128,-1,26
 203 -68 203 -68 145 -47 c 1,0,1
183 529 m 1,27,-1
 183 100 l 1,28,29
 241 68 241 68 312 68 c 0,30,31
 423 70 423 70 485 142 c 0,32,33
 532 200 532 200 532 279 c 0,34,35
 532 383 532 383 455 462 c 0,36,37
 452 465 452 465 445.5 470.5 c 128,-1,38
 439 476 439 476 436 479 c 0,39,40
 360 543 360 543 264 543 c 0,41,42
 227 543 227 543 183 529 c 1,27,-1
EndSplineSet
Validated: 1
EndChar

StartChar: E
Encoding: 69 69 39
Width: 604
GlyphClass: 2
Flags: W
LayerCount: 2
Fore
SplineSet
493 678 m 2,0,1
 531 678 531 678 531 636 c 0,2,3
 529 604 529 604 504.5 574.5 c 128,-1,4
 480 545 480 545 444 543 c 2,5,-1
 183 542 l 1,6,-1
 183 387 l 1,7,-1
 301 387 l 2,8,9
 333 387 333 387 339 355 c 0,10,11
 340 352 340 352 340 345 c 0,12,13
 339 316 339 316 313.5 285 c 128,-1,14
 288 254 288 254 253 252 c 2,15,-1
 183 252 l 1,16,-1
 183 68 l 1,17,-1
 188 68 l 1,18,-1
 544 68 l 2,19,20
 576 68 576 68 582 36 c 0,21,22
 583 33 583 33 583 26 c 0,23,24
 581 -5 581 -5 556 -35.5 c 128,-1,25
 531 -66 531 -66 496 -68 c 2,26,-1
 140 -68 l 2,27,28
 130 -68 130 -68 120 -62 c 1,29,30
 104 -68 104 -68 96 -68 c 0,31,32
 64 -68 64 -68 58 -36 c 0,33,34
 57 -33 57 -33 57 -26 c 2,35,-1
 57 585 l 2,36,37
 58 614 58 614 83.5 645 c 128,-1,38
 109 676 109 676 144 678 c 0,39,40
 148 678 148 678 158 676 c 0,41,42
 161 677 161 677 168 677 c 2,43,-1
 493 678 l 2,0,1
EndSplineSet
Validated: 1
EndChar

StartChar: F
Encoding: 70 70 40
Width: 483
GlyphClass: 2
Flags: W
LayerCount: 2
Fore
SplineSet
183 26 m 2,0,1
 181 -7 181 -7 156.5 -36.5 c 128,-1,2
 132 -66 132 -66 98 -67 c 0,3,4
 97 -67 97 -67 96 -67 c 0,5,6
 64 -67 64 -67 58 -36 c 0,7,8
 57 -33 57 -33 57 -26 c 2,9,-1
 57 585 l 2,10,11
 58 614 58 614 83.5 645 c 128,-1,12
 109 676 109 676 144 678 c 0,13,14
 148 678 148 678 158 676 c 0,15,16
 161 677 161 677 168 677 c 2,17,-1
 441 678 l 2,18,19
 473 678 473 678 479 646 c 0,20,21
 480 643 480 643 480 636 c 0,22,23
 478 604 478 604 453.5 574.5 c 128,-1,24
 429 545 429 545 393 543 c 2,25,-1
 183 542 l 1,26,-1
 183 387 l 1,27,-1
 301 387 l 2,28,29
 333 387 333 387 339 355 c 0,30,31
 340 352 340 352 340 345 c 0,32,33
 339 316 339 316 313.5 285 c 128,-1,34
 288 254 288 254 253 252 c 2,35,-1
 183 252 l 1,36,-1
 183 26 l 2,0,1
EndSplineSet
Validated: 1
EndChar

StartChar: G
Encoding: 71 71 41
Width: 661
GlyphClass: 2
Flags: W
LayerCount: 2
Fore
SplineSet
599 26 m 2,0,1
 597 -6 597 -6 572 -36 c 0,2,3
 546 -66 546 -66 514 -67 c 0,4,5
 513 -67 513 -67 512 -67 c 0,6,7
 481 -67 481 -67 475 -40 c 0,8,9
 474 -39 474 -39 474 -37 c 1,10,11
 411 -68 411 -68 350 -68 c 0,12,13
 221 -66 221 -66 127 13 c 0,14,15
 4 117 4 117 4 281 c 0,16,17
 6 421 6 421 98 534 c 0,18,19
 220 678 220 678 398 678 c 0,20,21
 502 676 502 676 587 623 c 0,22,23
 602 612 602 612 604 587 c 0,24,25
 602 554 602 554 579 525.5 c 128,-1,26
 556 497 556 497 517 495 c 0,27,28
 501 497 501 497 496 500 c 0,29,30
 429 543 429 543 350 543 c 0,31,32
 242 542 242 542 177 468 c 0,33,34
 130 410 130 410 130 332 c 0,35,36
 130 213 130 213 226 131 c 0,37,38
 301 68 301 68 398 68 c 0,39,40
 441 68 441 68 473 88 c 1,41,-1
 473 179 l 1,42,-1
 372 179 l 2,43,44
 340 179 340 179 334 211 c 0,45,46
 333 214 333 214 333 221 c 0,47,48
 335 254 335 254 359 283.5 c 128,-1,49
 383 313 383 313 420 314 c 2,50,-1
 517 314 l 1,51,52
 539 330 539 330 560 330 c 0,53,54
 592 330 592 330 598 298 c 0,55,56
 599 295 599 295 599 288 c 2,57,-1
 599 26 l 2,0,1
EndSplineSet
Validated: 1
EndChar

StartChar: H
Encoding: 72 72 42
Width: 667
GlyphClass: 2
Flags: W
LayerCount: 2
Fore
SplineSet
183 26 m 2,0,1
 181 -7 181 -7 156.5 -36.5 c 128,-1,2
 132 -66 132 -66 98 -67 c 0,3,4
 97 -67 97 -67 96 -67 c 0,5,6
 64 -67 64 -67 58 -36 c 0,7,8
 57 -33 57 -33 57 -26 c 2,9,-1
 57 585 l 2,10,11
 58 614 58 614 84 645 c 0,12,13
 108 676 108 676 142 677 c 0,14,15
 143 677 143 677 145 677 c 0,16,17
 177 677 177 677 182 646 c 0,18,19
 183 643 183 643 183 636 c 2,20,-1
 183 376 l 1,21,-1
 479 376 l 1,22,-1
 479 585 l 2,23,24
 480 614 480 614 506 645 c 0,25,26
 530 676 530 676 564 677 c 0,27,28
 565 677 565 677 567 677 c 0,29,30
 599 677 599 677 604 646 c 0,31,32
 605 643 605 643 605 636 c 2,33,-1
 605 26 l 2,34,35
 603 -7 603 -7 578.5 -36.5 c 128,-1,36
 554 -66 554 -66 520 -67 c 0,37,38
 519 -67 519 -67 518 -67 c 0,39,40
 486 -67 486 -67 480 -36 c 0,41,42
 479 -33 479 -33 479 -26 c 2,43,-1
 479 241 l 1,44,-1
 183 241 l 1,45,-1
 183 26 l 2,0,1
EndSplineSet
Validated: 1
EndChar

StartChar: I
Encoding: 73 73 43
Width: 246
GlyphClass: 2
Flags: W
LayerCount: 2
Fore
SplineSet
186 26 m 2,0,1
 184 -7 184 -7 159.5 -36.5 c 128,-1,2
 135 -66 135 -66 101 -67 c 0,3,4
 100 -67 100 -67 99 -67 c 0,5,6
 67 -67 67 -67 61 -36 c 0,7,8
 60 -33 60 -33 60 -26 c 2,9,-1
 60 585 l 2,10,11
 61 614 61 614 86.5 645 c 128,-1,12
 112 676 112 676 146 677 c 0,13,14
 147 677 147 677 148 677 c 0,15,16
 180 677 180 677 185 646 c 0,17,18
 186 643 186 643 186 636 c 2,19,-1
 186 26 l 2,0,1
EndSplineSet
Validated: 1
EndChar

StartChar: J
Encoding: 74 74 44
Width: 467
GlyphClass: 2
Flags: W
LayerCount: 2
Fore
SplineSet
230 592 m 0,0,1
 181 612 181 612 181 635.5 c 128,-1,2
 181 659 181 659 215 674 c 0,3,4
 258 692 258 692 341 692 c 128,-1,5
 424 692 424 692 468 674 c 128,-1,6
 512 656 512 656 512 631 c 128,-1,7
 512 606 512 606 469 588 c 0,8,9
 444 578 444 578 414 574 c 1,10,-1
 413 248 l 2,11,12
 412 128 412 128 333 34 c 0,13,14
 246 -68 246 -68 126 -68 c 0,15,16
 54 -67 54 -67 6 -36 c 0,17,18
 -27 -15 -27 -15 -27 13 c 128,-1,19
 -27 41 -27 41 -2.5 71 c 128,-1,20
 22 101 22 101 56 102 c 0,21,22
 71 102 71 102 91 90 c 0,23,24
 126 68 126 68 175 68 c 2,25,-1
 177 68 l 2,26,27
 227 68 227 68 257 103.5 c 128,-1,28
 287 139 287 139 287 197 c 2,29,-1
 288 576 l 1,30,31
 257 581 257 581 230 592 c 0,0,1
EndSplineSet
Validated: 1
EndChar

StartChar: K
Encoding: 75 75 45
Width: 629
GlyphClass: 2
Flags: W
LayerCount: 2
Fore
SplineSet
183 26 m 2,0,1
 183 -2 183 -2 160 -31 c 0,2,3
 132 -66 132 -66 98 -67 c 2,4,-1
 96 -67 l 2,5,6
 68 -67 68 -67 59 -40 c 0,7,8
 57 -33 57 -33 57 -26 c 2,9,-1
 57 585 l 2,10,11
 57 610 57 610 79 639 c 0,12,13
 108 676 108 676 142 677 c 0,14,15
 172 677 172 677 181 650 c 0,16,17
 183 643 183 643 183 636 c 2,18,-1
 183 413 l 1,19,-1
 476 657 l 2,20,21
 501 678 501 678 524 678 c 0,22,23
 552 678 552 678 564 645 c 0,24,25
 568 633 568 633 568 621 c 0,26,27
 568 595 568 595 549 580 c 0,28,29
 544 577 544 577 526 563 c 2,30,-1
 242 326 l 1,31,-1
 591 59 l 2,32,33
 605 48 605 48 605 29 c 2,34,-1
 605 26 l 2,35,36
 603 -7 603 -7 579 -35 c 0,37,38
 552 -68 552 -68 523 -68 c 0,39,40
 507 -68 507 -68 495 -59 c 2,41,-1
 183 178 l 1,42,-1
 183 26 l 2,0,1
EndSplineSet
Validated: 1
EndChar

StartChar: L
Encoding: 76 76 46
Width: 480
GlyphClass: 2
Flags: W
LayerCount: 2
Fore
SplineSet
57 585 m 2,0,1
 58 614 58 614 84 645 c 0,2,3
 108 676 108 676 142 677 c 0,4,5
 143 677 143 677 145 677 c 0,6,7
 177 677 177 677 182 646 c 0,8,9
 183 643 183 643 183 636 c 2,10,-1
 183 69 l 1,11,-1
 441 68 l 2,12,13
 473 68 473 68 479 36 c 0,14,15
 480 33 480 33 480 26 c 0,16,17
 478 -7 478 -7 453.5 -36.5 c 128,-1,18
 429 -66 429 -66 393 -68 c 2,19,-1
 120 -67 l 2,20,21
 113 -67 113 -67 111 -66 c 0,22,23
 97 -68 97 -68 96 -68 c 0,24,25
 64 -68 64 -68 58 -36 c 0,26,27
 57 -33 57 -33 57 -26 c 2,28,-1
 57 585 l 2,0,1
EndSplineSet
Validated: 1
EndChar

StartChar: M
Encoding: 77 77 47
Width: 708
GlyphClass: 2
Flags: W
LayerCount: 2
Fore
SplineSet
607 678 m 0,0,1
 639 678 639 678 645 646 c 0,2,3
 646 643 646 643 646 636 c 2,4,-1
 646 26 l 2,5,6
 644 -7 644 -7 619.5 -36.5 c 128,-1,7
 595 -66 595 -66 561 -67 c 0,8,9
 560 -67 560 -67 559 -67 c 0,10,11
 527 -67 527 -67 521 -36 c 0,12,13
 520 -33 520 -33 520 -26 c 2,14,-1
 520 328 l 1,15,-1
 408 66 l 2,16,17
 393 30 393 30 356 12 c 0,18,19
 342 5 342 5 325 5 c 0,20,21
 323 5 323 5 321 5 c 0,22,23
 302 6 302 6 293 27 c 2,24,-1
 183 281 l 1,25,-1
 183 26 l 2,26,27
 181 -7 181 -7 156.5 -36.5 c 128,-1,28
 132 -66 132 -66 98 -67 c 0,29,30
 97 -67 97 -67 96 -67 c 0,31,32
 64 -67 64 -67 58 -36 c 0,33,34
 57 -33 57 -33 57 -26 c 2,35,-1
 57 585 l 2,36,37
 58 614 58 614 83.5 645 c 128,-1,38
 109 676 109 676 144 678 c 0,39,40
 170 676 170 676 179 655 c 2,41,-1
 361 231 l 1,42,-1
 527 616 l 2,43,44
 542 652 542 652 579 670 c 0,45,46
 595 678 595 678 607 678 c 0,0,1
EndSplineSet
Validated: 1
EndChar

StartChar: N
Encoding: 78 78 48
Width: 667
GlyphClass: 2
Flags: W
LayerCount: 2
Fore
SplineSet
183 26 m 2,0,1
 181 -7 181 -7 156.5 -36.5 c 128,-1,2
 132 -66 132 -66 98 -67 c 0,3,4
 97 -67 97 -67 96 -67 c 0,5,6
 64 -67 64 -67 58 -36 c 0,7,8
 57 -33 57 -33 57 -26 c 2,9,-1
 57 585 l 2,10,11
 58 614 58 614 83.5 645 c 128,-1,12
 109 676 109 676 144 678 c 0,13,14
 165 676 165 676 175 664 c 2,15,-1
 479 271 l 1,16,-1
 479 585 l 2,17,18
 480 614 480 614 506 645 c 0,19,20
 530 676 530 676 564 677 c 0,21,22
 565 677 565 677 567 677 c 0,23,24
 599 677 599 677 604 646 c 0,25,26
 605 643 605 643 605 636 c 2,27,-1
 605 26 l 2,28,29
 603 -7 603 -7 578.5 -36.5 c 128,-1,30
 554 -66 554 -66 520 -67 c 0,31,32
 519 -67 519 -67 518 -67 c 0,33,34
 486 -67 486 -67 480 -36 c 0,35,36
 479 -33 479 -33 479 -26 c 2,37,-1
 479 24 l 1,38,-1
 183 406 l 1,39,-1
 183 26 l 2,0,1
EndSplineSet
Validated: 1
EndChar

StartChar: O
Encoding: 79 79 49
Width: 773
GlyphClass: 2
Flags: W
LayerCount: 2
Fore
SplineSet
4 281 m 0,0,1
 6 421 6 421 98 534 c 0,2,3
 220 678 220 678 398 678 c 0,4,5
 528 676 528 676 623 597 c 0,6,7
 737 503 737 503 744 351 c 1,8,-1
 744 332 l 2,9,10
 742 188 742 188 645 73 c 128,-1,11
 548 -42 548 -42 405 -64 c 0,12,13
 380 -68 380 -68 350 -68 c 0,14,15
 221 -66 221 -66 127 13 c 0,16,17
 4 117 4 117 4 281 c 0,0,1
130 332 m 0,18,19
 130 213 130 213 226 131 c 0,20,21
 301 68 301 68 404.5 68 c 128,-1,22
 508 68 508 68 569 141 c 1,23,-1
 571 143 l 1,24,25
 618 199 618 199 618 281 c 0,26,27
 618 392 618 392 531 472 c 0,28,29
 525 478 525 478 523 479 c 0,30,31
 448 543 448 543 346 543 c 0,32,33
 344 542 344 542 344 542 c 1,34,35
 242 542 242 542 177 468 c 0,36,37
 130 410 130 410 130 332 c 0,18,19
EndSplineSet
Validated: 1
EndChar

StartChar: P
Encoding: 80 80 50
Width: 611
GlyphClass: 2
Flags: W
LayerCount: 2
Fore
SplineSet
144 678 m 0,0,1
 171 676 171 676 180 655 c 1,2,3
 249 678 249 678 322 678 c 0,4,5
 450 678 450 678 527 604 c 0,6,7
 582 549 582 549 582 477 c 0,8,9
 582 402 582 402 527 335 c 0,10,11
 434 223 434 223 273 223 c 2,12,-1
 183 223 l 1,13,-1
 183 26 l 2,14,15
 181 -7 181 -7 156.5 -36.5 c 128,-1,16
 132 -66 132 -66 98 -67 c 0,17,18
 97 -67 97 -67 96 -67 c 0,19,20
 64 -67 64 -67 58 -36 c 0,21,22
 57 -33 57 -33 57 -26 c 2,23,-1
 57 585 l 2,24,25
 58 614 58 614 83.5 645 c 128,-1,26
 109 676 109 676 144 678 c 0,0,1
183 531 m 1,27,-1
 183 358 l 1,28,-1
 322 358 l 2,29,30
 402 358 402 358 442 392 c 1,31,-1
 450 400 l 2,32,33
 457 410 457 410 457 424 c 0,34,35
 455 465 455 465 417 496 c 0,36,37
 361 543 361 543 273 543 c 0,38,39
 226 543 226 543 183 531 c 1,27,-1
EndSplineSet
Validated: 1
EndChar

StartChar: Q
Encoding: 81 81 51
Width: 773
GlyphClass: 2
Flags: W
LayerCount: 2
Fore
SplineSet
4 281 m 0,0,1
 6 421 6 421 98 534 c 0,2,3
 220 678 220 678 398 678 c 0,4,5
 528 676 528 676 623 597 c 0,6,7
 737 503 737 503 744 351 c 1,8,-1
 744 332 l 2,9,10
 742 193 742 193 651 80 c 1,11,12
 662 74 662 74 670 70 c 0,13,14
 698 56 698 56 710 46 c 0,15,16
 723 35 723 35 724 15 c 0,17,18
 724 -4 724 -4 708 -41 c 0,19,20
 698 -56 698 -56 678 -56 c 0,21,22
 661 -56 661 -56 638 -46 c 0,23,24
 603 -31 603 -31 564 -1 c 1,25,26
 493 -50 493 -50 405 -64 c 0,27,28
 380 -68 380 -68 350 -68 c 0,29,30
 221 -66 221 -66 127 13 c 0,31,32
 4 117 4 117 4 281 c 0,0,1
130 332 m 0,33,34
 130 213 130 213 226 131 c 0,35,36
 300 68 300 68 404 68 c 0,37,38
 442 68 442 68 475 78 c 1,39,40
 452 104 452 104 438 127 c 0,41,42
 426 148 426 148 426 163 c 0,43,44
 426 180 426 180 441 190 c 0,45,46
 452 197 452 197 465 197 c 0,47,48
 486 197 486 197 511 178 c 0,49,50
 513 176 513 176 536 158 c 0,51,52
 548 149 548 149 566 137 c 0,53,54
 568 139 568 139 569 141 c 2,55,-1
 571 143 l 1,56,57
 618 199 618 199 618 281 c 0,58,59
 618 392 618 392 531 472 c 0,60,61
 525 478 525 478 523 479 c 0,62,63
 448 543 448 543 346 543 c 0,64,65
 344 542 344 542 344 542 c 1,66,67
 242 542 242 542 177 468 c 0,68,69
 130 410 130 410 130 332 c 0,33,34
EndSplineSet
Validated: 1
EndChar

StartChar: R
Encoding: 82 82 52
Width: 633
GlyphClass: 2
Flags: W
LayerCount: 2
Fore
SplineSet
144 678 m 0,0,1
 171 676 171 676 180 655 c 1,2,3
 249 678 249 678 322 678 c 0,4,5
 450 678 450 678 527 604 c 0,6,7
 582 549 582 549 582 477 c 0,8,9
 582 402 582 402 527 335 c 0,10,11
 457 254 457 254 353 232 c 1,12,-1
 579 59 l 2,13,14
 592 49 592 49 592 25 c 0,15,16
 592 -4 592 -4 566 -36 c 0,17,18
 541 -66 541 -66 506 -68 c 0,19,20
 494 -66 494 -66 482 -59 c 2,21,-1
 183 168 l 1,22,-1
 183 26 l 2,23,24
 181 -7 181 -7 156.5 -36.5 c 128,-1,25
 132 -66 132 -66 98 -67 c 0,26,27
 97 -67 97 -67 96 -67 c 0,28,29
 64 -67 64 -67 58 -36 c 0,30,31
 57 -33 57 -33 57 -26 c 2,32,-1
 57 585 l 2,33,34
 58 614 58 614 83.5 645 c 128,-1,35
 109 676 109 676 144 678 c 0,0,1
183 531 m 1,36,-1
 183 361 l 1,37,-1
 188 358 l 1,38,-1
 322 358 l 2,39,40
 402 358 402 358 442 392 c 1,41,-1
 450 400 l 2,42,43
 457 410 457 410 457 424 c 0,44,45
 455 465 455 465 417 496 c 0,46,47
 361 543 361 543 273 543 c 0,48,49
 226 543 226 543 183 531 c 1,36,-1
EndSplineSet
Validated: 1
EndChar

StartChar: S
Encoding: 83 83 53
Width: 632
GlyphClass: 2
Flags: W
LayerCount: 2
Fore
SplineSet
24 35 m 0,0,1
 26 67 26 67 50.5 96.5 c 128,-1,2
 75 126 75 126 111 128 c 0,3,4
 123 128 123 128 132 122 c 0,5,6
 223 67 223 67 341 67 c 0,7,8
 423 67 423 67 458 93 c 0,9,10
 470 102 470 102 470 127 c 0,11,12
 470 190 470 190 391 224 c 0,13,14
 351 242 351 242 287 251 c 0,15,16
 211 265 211 265 177 278.5 c 128,-1,17
 143 292 143 292 117 314 c 0,18,19
 52 370 52 370 51 452 c 0,20,21
 51 559 51 559 142 626 c 0,22,23
 214 678 214 678 306.5 678 c 128,-1,24
 399 678 399 678 531 619 c 0,25,26
 554 608 554 608 556 580 c 0,27,28
 554 549 554 549 529 518.5 c 128,-1,29
 504 488 504 488 469 486 c 0,30,31
 460 486 460 486 452 489 c 0,32,33
 335 543 335 543 253 543 c 0,34,35
 194 543 194 543 180 522 c 0,36,37
 177 519 177 519 177 503 c 0,38,39
 179 461 179 461 214.5 432.5 c 128,-1,40
 250 404 250 404 330.5 389 c 128,-1,41
 411 374 411 374 431 368 c 0,42,43
 596 321 596 321 596 178 c 0,44,45
 596 28 596 28 432 -44 c 0,46,47
 370 -68 370 -68 293 -68 c 0,48,49
 152 -67 152 -67 42 -2 c 0,50,51
 25 10 25 10 24 35 c 0,0,1
EndSplineSet
Validated: 1
EndChar

StartChar: T
Encoding: 84 84 54
Width: 535
GlyphClass: 2
Flags: W
LayerCount: 2
Fore
SplineSet
199 543 m 1,0,-1
 47 543 l 2,1,2
 15 543 15 543 9 575 c 0,3,4
 8 578 8 578 8 585 c 0,5,6
 9 614 9 614 34.5 645 c 128,-1,7
 60 676 60 676 95 678 c 2,8,-1
 492 678 l 2,9,10
 524 678 524 678 530 646 c 0,11,12
 531 643 531 643 531 636 c 0,13,14
 530 607 530 607 504.5 576 c 128,-1,15
 479 545 479 545 444 543 c 2,16,-1
 325 543 l 1,17,-1
 325 26 l 2,18,19
 324 -4 324 -4 298 -36 c 128,-1,20
 272 -68 272 -68 239 -68 c 0,21,22
 238 -68 238 -68 238 -68 c 2,23,24
 206 -68 206 -68 200 -36 c 0,25,26
 199 -33 199 -33 199 -26 c 2,27,-1
 199 543 l 1,0,-1
EndSplineSet
Validated: 1
EndChar

StartChar: U
Encoding: 85 85 55
Width: 616
GlyphClass: 2
Flags: W
LayerCount: 2
Fore
SplineSet
436 585 m 2,0,1
 437 614 437 614 462.5 645 c 128,-1,2
 488 676 488 676 522 677 c 0,3,4
 523 677 523 677 524 677 c 0,5,6
 556 677 556 677 561 646 c 0,7,8
 562 643 562 643 562 636 c 2,9,-1
 561 248 l 2,10,11
 560 128 560 128 483 35 c 0,12,13
 434 -22 434 -22 380 -45 c 128,-1,14
 326 -68 326 -68 281 -68 c 0,15,16
 202 -67 202 -67 141 -16 c 0,17,18
 55 58 55 58 48 181 c 1,19,-1
 48 197 l 1,20,-1
 47 585 l 2,21,22
 48 614 48 614 74 645 c 0,23,24
 98 676 98 676 132 677 c 0,25,26
 133 677 133 677 135 677 c 0,27,28
 167 677 167 677 172 646 c 0,29,30
 173 643 173 643 173 636 c 2,31,-1
 174 248 l 2,32,33
 174 170 174 170 227 114 c 0,34,35
 271 70 271 70 329 68 c 0,36,37
 376 70 376 70 404 101 c 0,38,39
 435 139 435 139 435 197 c 2,40,-1
 436 585 l 2,0,1
EndSplineSet
Validated: 1
EndChar

StartChar: V
Encoding: 86 86 56
Width: 623
GlyphClass: 2
Flags: W
LayerCount: 2
Fore
SplineSet
568 678 m 0,0,1
 600 678 600 678 606 646 c 0,2,3
 607 643 607 643 607 631.5 c 128,-1,4
 607 620 607 620 602 608 c 2,5,-1
 371 -2 l 2,6,7
 357 -40 357 -40 319 -60 c 0,8,9
 302 -68 302 -68 289 -68 c 0,10,11
 265 -68 265 -68 253 -44 c 2,12,-1
 22 566 l 2,13,14
 18 575 18 575 18 585 c 0,15,16
 19 614 19 614 44.5 645 c 128,-1,17
 70 676 70 676 105 678 c 0,18,19
 130 676 130 676 141 654 c 2,20,-1
 322 178 l 1,21,-1
 486 612 l 2,22,23
 500 650 500 650 538 670 c 0,24,25
 556 678 556 678 568 678 c 0,0,1
EndSplineSet
Validated: 1
EndChar

StartChar: W
Encoding: 87 87 57
Width: 887
GlyphClass: 2
Flags: W
LayerCount: 2
Fore
SplineSet
826 678 m 0,0,1
 858 678 858 678 864 646 c 0,2,3
 865 643 865 643 865 634.5 c 128,-1,4
 865 626 865 626 862 615 c 2,5,-1
 683 5 l 2,6,7
 673 -34 673 -34 634 -57 c 0,8,9
 616 -68 616 -68 595 -68 c 0,10,11
 594 -68 594 -68 594 -68 c 2,12,13
 572 -68 572 -68 562 -42 c 2,14,-1
 436 340 l 1,15,-1
 323 1 l 2,16,17
 311 -37 311 -37 273 -58 c 0,18,19
 257 -68 257 -68 235.5 -68 c 128,-1,20
 214 -68 214 -68 204 -44 c 0,21,22
 203 -42 203 -42 203 -40 c 2,23,-1
 25 569 l 2,24,25
 23 579 23 579 23 585 c 0,26,27
 25 617 25 617 49.5 646.5 c 128,-1,28
 74 676 74 676 110 678 c 0,29,30
 139 676 139 676 146 650 c 2,31,-1
 275 209 l 1,32,-1
 386 539 l 2,33,34
 398 577 398 577 437 598 c 0,35,36
 452 606 452 606 471 606 c 0,37,38
 473 606 473 606 475 606 c 0,39,40
 496 605 496 605 505 582 c 2,41,-1
 627 213 l 1,42,-1
 742 605 l 2,43,44
 752 644 752 644 791 667 c 0,45,46
 811 678 811 678 826 678 c 0,0,1
EndSplineSet
Validated: 1
EndChar

StartChar: X
Encoding: 88 88 58
Width: 665
GlyphClass: 2
Flags: W
LayerCount: 2
Fore
SplineSet
74 -68 m 0,0,1
 42 -68 42 -68 36 -36 c 0,2,3
 35 -33 35 -33 35 -26 c 0,4,5
 37 5 37 5 55 29 c 2,6,-1
 251 287 l 1,7,-1
 43 557 l 2,8,9
 36 567 36 567 36 587 c 0,10,11
 36 590 36 590 36 592 c 0,12,13
 37 616 37 616 61.5 646 c 128,-1,14
 86 676 86 676 122 678 c 0,15,16
 143 676 143 676 153 664 c 2,17,-1
 346 412 l 1,18,-1
 520 639 l 2,19,20
 550 674 550 674 587 678 c 0,21,22
 619 678 619 678 625 646 c 0,23,24
 626 643 626 643 625 626 c 128,-1,25
 624 609 624 609 605 582 c 2,26,-1
 410 327 l 1,27,-1
 617 53 l 2,28,29
 626 40 626 40 626 26 c 0,30,31
 624 -5 624 -5 599 -35.5 c 128,-1,32
 574 -66 574 -66 539 -68 c 0,33,34
 518 -66 518 -66 508 -53 c 2,35,-1
 314 202 l 1,36,-1
 140 -29 l 2,37,38
 112 -66 112 -66 74 -68 c 0,0,1
EndSplineSet
Validated: 1
EndChar

StartChar: Y
Encoding: 89 89 59
Width: 609
GlyphClass: 2
Flags: W
LayerCount: 2
Fore
SplineSet
371 26 m 2,0,1
 369 -6 369 -6 344 -36 c 0,2,3
 320 -66 320 -66 286 -67 c 0,4,5
 285 -67 285 -67 283 -67 c 0,6,7
 251 -67 251 -67 246 -36 c 0,8,9
 245 -33 245 -33 245 -26 c 2,10,-1
 245 264 l 1,11,-1
 20 557 l 2,12,13
 12 567 12 567 12 588 c 0,14,15
 12 613 12 613 38 645 c 0,16,17
 64 676 64 676 99 678 c 0,18,19
 120 676 120 676 130 664 c 2,20,-1
 324 412 l 1,21,-1
 498 639 l 2,22,23
 528 675 528 675 564 678 c 0,24,25
 596 678 596 678 602 646 c 0,26,27
 603 643 603 643 603 636 c 0,28,29
 601 606 601 606 583 582 c 2,30,-1
 371 305 l 1,31,-1
 371 26 l 2,0,1
EndSplineSet
Validated: 1
EndChar

StartChar: Z
Encoding: 90 90 60
Width: 657
GlyphClass: 2
Flags: W
LayerCount: 2
Fore
SplineSet
534 -68 m 2,0,-1
 72 -68 l 2,1,2
 40 -68 40 -68 34 -36 c 0,3,4
 33 -33 33 -33 33 -26 c 0,5,6
 35 5 35 5 53 29 c 2,7,-1
 441 543 l 1,8,-1
 72 543 l 2,9,10
 40 543 40 543 34 575 c 0,11,12
 33 578 33 578 33 585 c 0,13,14
 35 617 35 617 59.5 646.5 c 128,-1,15
 84 676 84 676 120 678 c 2,16,-1
 581 678 l 2,17,18
 613 678 613 678 620 647 c 0,19,20
 621 643 621 643 621 636 c 0,21,22
 620 609 620 609 600 582 c 2,23,-1
 211 68 l 1,24,-1
 581 68 l 2,25,26
 613 68 613 68 620 37 c 0,27,28
 621 33 621 33 621 26 c 0,29,30
 619 -4 619 -4 593.5 -35.5 c 128,-1,31
 568 -67 568 -67 534 -68 c 2,0,-1
EndSplineSet
Validated: 1
EndChar

StartChar: bracketleft
Encoding: 91 91 61
Width: 360
GlyphClass: 2
Flags: W
LayerCount: 2
Fore
SplineSet
147 727 m 2,0,-1
 299 727 l 2,1,2
 331 727 331 727 337 695 c 0,3,4
 338 692 338 692 338 685 c 0,5,6
 337 656 337 656 312 625.5 c 128,-1,7
 287 595 287 595 251 593 c 2,8,-1
 186 593 l 1,9,-1
 186 -102 l 1,10,-1
 299 -102 l 2,11,12
 331 -102 331 -102 337 -134 c 0,13,14
 338 -137 338 -137 338 -144 c 0,15,16
 336 -175 336 -175 311.5 -205 c 128,-1,17
 287 -235 287 -235 251 -237 c 2,18,-1
 99 -241 l 2,19,20
 67 -241 67 -241 61 -209 c 0,21,22
 60 -206 60 -206 60 -199 c 2,23,-1
 60 634 l 2,24,25
 62 665 62 665 86.5 695 c 128,-1,26
 111 725 111 725 147 727 c 2,0,-1
EndSplineSet
Validated: 1
EndChar

StartChar: backslash
Encoding: 92 92 62
Width: 435
GlyphClass: 2
Flags: W
LayerCount: 2
Fore
SplineSet
42 566 m 2,0,1
 39 573 39 573 40 595 c 128,-1,2
 41 617 41 617 65.5 646.5 c 128,-1,3
 90 676 90 676 126 678 c 0,4,5
 152 676 152 676 162 654 c 2,6,-1
 393 44 l 2,7,8
 396 36 396 36 396 26 c 0,9,10
 394 -7 394 -7 369.5 -36.5 c 128,-1,11
 345 -66 345 -66 309 -68 c 0,12,13
 284 -66 284 -66 273 -44 c 2,14,-1
 42 566 l 2,0,1
EndSplineSet
Validated: 1
EndChar

StartChar: bracketright
Encoding: 93 93 63
Width: 333
GlyphClass: 2
Flags: W
LayerCount: 2
Fore
SplineSet
186 -241 m 2,0,-1
 35 -241 l 2,1,2
 3 -241 3 -241 -3 -209 c 0,3,4
 -4 -206 -4 -206 -4 -199 c 0,5,6
 -2 -166 -2 -166 22 -136.5 c 128,-1,7
 46 -107 46 -107 83 -106 c 2,8,-1
 147 -106 l 1,9,-1
 147 589 l 1,10,-1
 35 589 l 2,11,12
 3 589 3 589 -3 621 c 0,13,14
 -4 624 -4 624 -4 631 c 0,15,16
 -2 663 -2 663 22 692.5 c 128,-1,17
 46 722 46 722 83 723 c 2,18,-1
 234 727 l 2,19,20
 266 727 266 727 272 695 c 0,21,22
 273 692 273 692 273 685 c 2,23,-1
 273 -147 l 2,24,25
 271 -181 271 -181 247 -210.5 c 128,-1,26
 223 -240 223 -240 186 -241 c 2,0,-1
EndSplineSet
Validated: 1
EndChar

StartChar: asciicircum
Encoding: 94 94 64
AltUni2: 0002c6.ffffffff.0 0002c4.ffffffff.0 0002c6.ffffffff.0 0002c4.ffffffff.0
Width: 503
GlyphClass: 2
Flags: W
LayerCount: 2
Fore
SplineSet
56 294 m 0,0,1
 24 294 24 294 18 326 c 0,2,3
 17 329 17 329 18 344 c 128,-1,4
 19 359 19 359 31 380 c 2,5,-1
 200 658 l 2,6,7
 220 693 220 693 256 705 c 0,8,9
 266 708 266 708 274 708 c 0,10,11
 295 708 295 708 306 690 c 2,12,-1
 475 412 l 2,13,14
 480 403 480 403 480 385 c 0,15,16
 480 382 480 382 480 378 c 0,17,18
 479 354 479 354 454.5 325 c 128,-1,19
 430 296 430 296 394 294 c 0,20,21
 371 296 371 296 361 311 c 2,22,-1
 237 518 l 1,23,-1
 130 343 l 2,24,25
 111 309 111 309 74 297 c 0,26,27
 64 294 64 294 56 294 c 0,0,1
EndSplineSet
Validated: 1
EndChar

StartChar: underscore
Encoding: 95 95 65
Width: 530
GlyphClass: 2
Flags: W
LayerCount: 2
Fore
SplineSet
413 -158 m 2,0,-1
 97 -158 l 2,1,2
 65 -158 65 -158 59 -126 c 0,3,4
 58 -123 58 -123 58 -116 c 0,5,6
 59 -87 59 -87 84.5 -56 c 128,-1,7
 110 -25 110 -25 145 -23 c 2,8,-1
 460 -23 l 2,9,10
 492 -23 492 -23 499 -54 c 0,11,12
 500 -58 500 -58 500 -65 c 0,13,14
 498 -95 498 -95 473 -125.5 c 128,-1,15
 448 -156 448 -156 413 -158 c 2,0,-1
EndSplineSet
Validated: 1
EndChar

StartChar: grave
Encoding: 96 96 66
Width: 300
GlyphClass: 2
Flags: W
LayerCount: 2
Fore
SplineSet
10 557 m 0,0,1
 10 597 10 597 50 630 c 0,2,3
 75 650 75 650 97 650 c 0,4,5
 116 648 116 648 125 639 c 2,6,-1
 268 461 l 2,7,8
 275 454 275 454 275 440 c 0,9,10
 275 410 275 410 244 389 c 0,11,12
 230 380 230 380 218 380 c 0,13,14
 207 382 207 382 200 387 c 2,15,-1
 22 525 l 2,16,17
 10 536 10 536 10 557 c 0,0,1
EndSplineSet
Validated: 1
EndChar

StartChar: a
Encoding: 97 97 67
AltUni2: 0000aa.ffffffff.0 0000aa.ffffffff.0
Width: 962
GlyphClass: 2
Flags: W
AnchorPoint: "Anchor-1" 481 819 basechar 0
AnchorPoint: "Anchor-0" 481 -205 basechar 0
LayerCount: 2
Fore
SplineSet
695 127 m 0,0,1
 728 94 728 94 748 63 c 0,2,3
 761 43 761 43 761 34 c 2,4,5
 761 34 761 34 761 32 c 0,6,7
 761 28 761 28 758 25 c 0,8,9
 756 23 756 23 752 23 c 0,10,11
 746 23 746 23 722 37 c 0,12,13
 695 53 695 53 657 91 c 0,14,15
 620 128 620 128 603 154 c 0,16,17
 590 174 590 174 590 185 c 0,18,19
 590 188 590 188 592.5 190.5 c 128,-1,20
 595 193 595 193 600 193 c 0,21,22
 611 192 611 192 629 180 c 0,23,24
 671 151 671 151 695 127 c 0,0,1
309 519 m 0,25,26
 344 482 344 482 362 455 c 0,27,28
 376 433 376 433 376 424 c 0,29,30
 376 418 376 418 374 417 c 0,31,32
 371 415 371 415 367 415 c 0,33,34
 358 415 358 415 337 429 c 0,35,36
 308 448 308 448 272 483 c 0,37,38
 233 521 233 521 218 547 c 0,39,40
 205 569 205 569 205 577 c 0,41,42
 205 581 205 581 208 584 c 128,-1,43
 211 587 211 587 214 587 c 0,44,45
 224 586 224 586 244 573 c 0,46,47
 280 549 280 549 309 519 c 0,25,26
270 135 m 0,48,49
 301 166 301 166 335 188 c 0,50,51
 355 201 355 201 365 201 c 0,52,53
 370 201 370 201 372 199 c 128,-1,54
 374 197 374 197 374 193 c 0,55,56
 374 184 374 184 361 162 c 0,57,58
 346 137 346 137 307 98 c 0,59,60
 273 64 273 64 242 44 c 0,61,62
 228 35 228 35 212 31 c 0,63,64
 208 30 208 30 206 32 c 0,65,66
 203 35 203 35 203 39 c 0,67,68
 204 51 204 51 216 69 c 0,69,70
 240 105 240 105 270 135 c 0,48,49
655 518 m 0,71,72
 690 553 690 553 720 572 c 0,73,74
 742 586 742 586 749 586 c 2,75,76
 749 586 749 586 750 586 c 0,77,78
 754 585 754 585 756 583 c 128,-1,79
 758 581 758 581 758 577 c 2,80,81
 758 577 758 577 758 576 c 2,82,83
 758 576 758 576 758 575 c 0,84,85
 759 568 759 568 745 546 c 0,86,87
 726 516 726 516 691 481 c 0,88,89
 657 447 657 447 627 428 c 0,90,91
 605 414 605 414 596 414 c 0,92,93
 593 414 593 414 591 416 c 0,94,95
 587 420 587 420 587 423 c 2,96,97
 587 423 587 423 587 424 c 2,98,99
 587 424 587 424 587 426 c 0,100,101
 585 430 585 430 601 454 c 0,102,103
 621 484 621 484 655 518 c 0,71,72
758 329 m 0,104,105
 803 329 803 329 842 321 c 0,106,107
 876 314 876 314 876 303 c 0,108,109
 876 291 876 291 842 284 c 0,110,111
 807 277 807 277 758 277 c 0,112,113
 705 277 705 277 675 284 c 0,114,115
 641 292 641 292 641 303 c 128,-1,116
 641 314 641 314 675.5 321.5 c 128,-1,117
 710 329 710 329 758 329 c 0,104,105
209 334 m 0,118,119
 253 334 253 334 292 326 c 0,120,121
 326 319 326 319 326 308 c 0,122,123
 326 298 326 298 292 290 c 0,124,125
 257 282 257 282 209 282 c 0,126,127
 166 282 166 282 126 290 c 0,128,129
 91 297 91 297 91 308 c 128,-1,130
 91 319 91 319 125.5 326.5 c 128,-1,131
 160 334 160 334 209 334 c 0,118,119
454 35 m 0,132,133
 454 78 454 78 462 118 c 0,134,135
 469 153 469 153 480 153 c 0,136,137
 490 153 490 153 498 118 c 128,-1,138
 506 83 506 83 506 35 c 0,139,140
 506 -8 506 -8 498 -48 c 0,141,142
 491 -83 491 -83 480 -83 c 128,-1,143
 469 -83 469 -83 461.5 -48.5 c 128,-1,144
 454 -14 454 -14 454 35 c 0,132,133
454 578 m 0,145,146
 454 621 454 621 462 661 c 0,147,148
 469 696 469 696 480 696 c 0,149,150
 490 696 490 696 498 661 c 0,151,152
 506 627 506 627 506 578 c 0,153,154
 506 535 506 535 498 495 c 0,155,156
 491 460 491 460 480 460 c 128,-1,157
 469 460 469 460 461.5 495 c 128,-1,158
 454 530 454 530 454 578 c 0,145,146
361 305 m 0,159,160
 361 353 361 353 397 390 c 0,161,162
 432 426 432 426 482 426 c 0,163,164
 530 426 530 426 567 390 c 0,165,166
 603 355 603 355 603 305 c 128,-1,167
 603 255 603 255 567 219 c 0,168,169
 532 184 532 184 482 184 c 128,-1,170
 432 184 432 184 396.5 219.5 c 128,-1,171
 361 255 361 255 361 305 c 0,159,160
1970 -235 m 1024,172,-1
EndSplineSet
Validated: 1
EndChar

StartChar: b
Encoding: 98 98 68
Width: 716
GlyphClass: 2
Flags: W
AnchorPoint: "Anchor-1" 358 819 basechar 0
AnchorPoint: "Anchor-0" 358 -205 basechar 0
LayerCount: 2
Fore
SplineSet
589 81 m 1,0,-1
 356 -58 l 1,1,-1
 122 73 l 1,2,-1
 126 544 l 1,3,-1
 359 683 l 1,4,-1
 593 552 l 1,5,-1
 589 81 l 1,0,-1
451 323 m 0,6,7
 451 498 451 498 431 541 c 0,8,9
 397 614 397 614 357 630 c 1,10,11
 357 630 357 630 356 630 c 0,12,13
 260 630 260 630 260 315 c 128,-1,14
 260 0 260 0 355.5 0 c 128,-1,15
 451 0 451 0 451 323 c 0,6,7
EndSplineSet
Validated: 1
EndChar

StartChar: c
Encoding: 99 99 69
Width: 912
GlyphClass: 2
Flags: W
AnchorPoint: "Anchor-1" 456 819 basechar 0
AnchorPoint: "Anchor-0" 456 -205 basechar 0
LayerCount: 2
Fore
SplineSet
553 646 m 1,0,-1
 555 629 l 1,1,-1
 542 619 l 1,2,-1
 557 612 l 1,3,-1
 560 595 l 1,4,-1
 573 606 l 1,5,-1
 589 600 l 1,6,-1
 587 616 l 1,7,-1
 600 627 l 1,8,-1
 584 633 l 1,9,-1
 582 650 l 1,10,-1
 568 640 l 1,11,-1
 553 646 l 1,0,-1
350 639 m 1,12,-1
 335 593 l 1,13,-1
 287 582 l 1,14,-1
 320 546 l 1,15,-1
 305 500 l 1,16,-1
 353 510 l 1,17,-1
 386 474 l 1,18,-1
 401 521 l 1,19,-1
 448 531 l 1,20,-1
 415 567 l 1,21,-1
 430 614 l 1,22,-1
 383 603 l 1,23,-1
 350 639 l 1,12,-1
602 479 m 1,24,-1
 612 411 l 1,25,-1
 558 368 l 1,26,-1
 622 342 l 1,27,-1
 632 274 l 1,28,-1
 686 317 l 1,29,-1
 751 291 l 1,30,-1
 741 360 l 1,31,-1
 795 402 l 1,32,-1
 731 428 l 1,33,-1
 721 496 l 1,34,-1
 666 454 l 1,35,-1
 602 479 l 1,24,-1
431 354 m 1,36,-1
 323 307 l 1,37,-1
 229 376 l 1,38,-1
 216 260 l 1,39,-1
 108 213 l 1,40,-1
 203 144 l 1,41,-1
 190 27 l 1,42,-1
 297 74 l 1,43,-1
 391 4 l 1,44,-1
 404 121 l 1,45,-1
 512 168 l 1,46,-1
 417 237 l 1,47,-1
 431 354 l 1,36,-1
556 580 m 1,48,-1
 530 613 l 1,49,-1
 544 652 l 1,50,-1
 586 659 l 1,51,-1
 614 626 l 1,52,-1
 599 586 l 1,53,-1
 556 580 l 1,48,-1
299 491 m 1,54,-1
 277 590 l 1,55,-1
 351 659 l 1,56,-1
 447 629 l 1,57,-1
 470 530 l 1,58,-1
 396 461 l 1,59,-1
 299 491 l 1,54,-1
620 253 m 1,60,-1
 528 370 l 1,61,-1
 582 509 l 1,62,-1
 729 530 l 1,63,-1
 823 413 l 1,64,-1
 769 275 l 1,65,-1
 620 253 l 1,60,-1
185 1 m 1,66,-1
 89 210 l 1,67,-1
 223 398 l 1,68,-1
 452 377 l 1,69,-1
 549 167 l 1,70,-1
 416 -21 l 1,71,-1
 185 1 l 1,66,-1
EndSplineSet
Validated: 1
EndChar

StartChar: d
Encoding: 100 100 70
Width: 920
GlyphClass: 2
Flags: W
AnchorPoint: "Anchor-1" 460 819 basechar 0
AnchorPoint: "Anchor-0" 460 -205 basechar 0
LayerCount: 2
Fore
SplineSet
418 616 m 1,0,-1
 551 616 l 1,1,-1
 551 503 l 1,2,-1
 418 503 l 1,3,-1
 418 616 l 1,0,-1
335 487 m 1,4,-1
 624 487 l 1,5,-1
 624 368 l 1,6,-1
 335 368 l 1,7,-1
 335 487 l 1,4,-1
237 346 m 1,8,-1
 699 346 l 1,9,-1
 699 206 l 1,10,-1
 237 206 l 1,11,-1
 237 346 l 1,8,-1
97 182 m 1,12,-1
 821 182 l 1,13,-1
 821 -4 l 1,14,-1
 97 -4 l 1,15,-1
 97 182 l 1,12,-1
EndSplineSet
Validated: 1
EndChar

StartChar: e
Encoding: 101 101 71
Width: 896
GlyphClass: 2
Flags: W
AnchorPoint: "Anchor-1" 448 819 basechar 0
AnchorPoint: "Anchor-0" 448 -205 basechar 0
LayerCount: 2
Fore
SplineSet
111 190 m 1,0,-1
 111 642 l 1,1,-1
 302 643 l 1,2,-1
 543 643 l 1,3,-1
 543 435 l 1,4,-1
 302 435 l 1,5,-1
 302 191 l 1,6,-1
 111 190 l 1,0,-1
353 392 m 1,7,-1
 543 392 l 1,8,-1
 543 190 l 1,9,-1
 353 190 l 1,10,-1
 353 392 l 1,7,-1
1981 -235 m 1024,11,-1
587 643 m 1,12,-1
 782 643 l 1,13,-1
 784 140 l 1,14,-1
 786 -28 l 1,15,-1
 114 -28 l 1,16,-1
 112 140 l 1,17,-1
 588 140 l 1,18,-1
 587 643 l 1,12,-1
EndSplineSet
Validated: 1
EndChar

StartChar: f
Encoding: 102 102 72
Width: 925
GlyphClass: 2
Flags: W
AnchorPoint: "Anchor-1" 462 819 basechar 0
AnchorPoint: "Anchor-0" 462 -205 basechar 0
LayerCount: 2
Fore
SplineSet
503.5 336.5 m 128,-1,1
 489 350 489 350 468 350 c 128,-1,2
 447 350 447 350 432.5 337 c 128,-1,3
 418 324 418 324 418 304 c 128,-1,4
 418 284 418 284 432 272 c 128,-1,5
 446 260 446 260 460.5 260 c 128,-1,6
 475 260 475 260 503 272 c 1,7,8
 518 285 518 285 518 304 c 128,-1,0
 518 323 518 323 503.5 336.5 c 128,-1,1
397 247.5 m 128,-1,10
 371 271 371 271 371 307 c 128,-1,11
 371 343 371 343 396.5 367.5 c 128,-1,12
 422 392 422 392 460 392 c 128,-1,13
 498 392 498 392 523.5 367.5 c 128,-1,14
 549 343 549 343 549 307 c 128,-1,15
 549 271 549 271 523.5 247.5 c 128,-1,16
 498 224 498 224 463 224 c 2,17,18
 463 224 463 224 443 224 c 128,-1,9
 423 224 423 224 397 247.5 c 128,-1,10
370.5 398.5 m 128,-1,20
 331 359 331 359 331 305.5 c 128,-1,21
 331 252 331 252 370.5 213.5 c 128,-1,22
 410 175 410 175 463.5 175 c 128,-1,23
 517 175 517 175 557.5 213.5 c 128,-1,24
 598 252 598 252 598 305.5 c 128,-1,25
 598 359 598 359 558.5 398.5 c 128,-1,26
 519 438 519 438 464.5 438 c 128,-1,19
 410 438 410 438 370.5 398.5 c 128,-1,20
480 495 m 0,27,28
 546 495 546 495 603 440 c 0,29,30
 666 380 666 380 666 308 c 0,31,32
 666 241 666 241 596 175 c 0,33,34
 538 120 538 120 461.5 120 c 128,-1,35
 385 120 385 120 326.5 175 c 128,-1,36
 268 230 268 230 268 308 c 128,-1,37
 268 386 268 386 326.5 440.5 c 128,-1,38
 385 495 385 495 465 495 c 2,39,40
 465 495 465 495 480 495 c 0,27,28
189 315 m 128,-1,42
 189 209 189 209 267.5 133.5 c 128,-1,43
 346 58 346 58 455.5 58 c 128,-1,44
 565 58 565 58 651.5 132.5 c 128,-1,45
 738 207 738 207 738 315 c 128,-1,46
 738 423 738 423 652.5 496.5 c 128,-1,47
 567 570 567 570 455.5 570 c 128,-1,48
 344 570 344 570 266.5 495.5 c 128,-1,41
 189 421 189 421 189 315 c 128,-1,42
699 64 m 0,49,50
 596 -30 596 -30 459 -30 c 0,51,52
 339 -30 339 -30 206 64 c 0,53,54
 100 139 100 139 100 312 c 0,55,56
 100 460 100 460 205 559 c 128,-1,57
 310 658 310 658 458 658 c 0,58,59
 466 658 466 658 473 657 c 0,60,61
 598 657 598 657 692 568 c 0,62,63
 811 455 811 455 811 318 c 0,64,65
 811 166 811 166 699 64 c 0,49,50
EndSplineSet
Validated: 1
EndChar

StartChar: g
Encoding: 103 103 73
Width: 1185
GlyphClass: 2
Flags: W
AnchorPoint: "Anchor-1" 604 819 basechar 0
AnchorPoint: "Anchor-0" 604 -205 basechar 0
LayerCount: 2
Fore
SplineSet
967 420 m 0,0,1
 927 420 927 420 780 366 c 1,2,-1
 780 345 l 2,3,4
 780 309 780 309 776 290 c 1,5,6
 1009 376 1009 376 1009 406 c 2,7,8
 1009 406 1009 406 1009 407 c 0,9,10
 1009 420 1009 420 967 420 c 0,0,1
139 221 m 0,11,12
 139 218 139 218 149 213 c 128,-1,13
 159 208 159 208 196 208 c 128,-1,14
 233 208 233 208 273 214 c 128,-1,15
 313 220 313 220 364 235 c 1,16,17
 347 266 347 266 343 304 c 1,18,19
 250 294 250 294 194.5 264.5 c 128,-1,20
 139 235 139 235 139 221 c 0,11,12
1021 462 m 2,21,22
 1021 462 1021 462 1034 462 c 0,23,24
 1077 461 1077 461 1077 408 c 0,25,26
 1077 394 1077 394 1056 369 c 0,27,28
 994 292 994 292 771 250 c 1,29,30
 760 208 760 208 727 178 c 0,31,32
 667 123 667 123 565 123 c 2,33,34
 565 123 565 123 561 123 c 0,35,36
 456 123 456 123 395 190 c 1,37,38
 277 171 277 171 205 171 c 0,39,40
 87 171 87 171 87 221 c 0,41,42
 87 289 87 289 207 339 c 0,43,44
 277 368 277 368 355 377 c 1,45,46
 370 409 370 409 398 437 c 0,47,48
 471 510 471 510 582 510 c 2,49,50
 582 510 582 510 585 510 c 0,51,52
 729 510 729 510 766 423 c 1,53,54
 893 462 893 462 1021 462 c 2,21,22
EndSplineSet
Validated: 1
EndChar

StartChar: h
Encoding: 104 104 74
AltUni2: 0002b0.ffffffff.0 0002b0.ffffffff.0
Width: 809
GlyphClass: 2
Flags: W
AnchorPoint: "Anchor-1" 389 819 basechar 0
AnchorPoint: "Anchor-0" 389 -205 basechar 0
LayerCount: 2
Fore
SplineSet
571 89 m 1,0,-1
 546 129 l 1,1,-1
 499 128 l 1,2,-1
 523 168 l 1,3,-1
 498 208 l 1,4,-1
 544 210 l 1,5,-1
 567 250 l 1,6,-1
 592 210 l 1,7,-1
 639 212 l 1,8,-1
 615 171 l 1,9,-1
 640 131 l 1,10,-1
 594 129 l 1,11,-1
 571 89 l 1,0,-1
658 258 m 1,12,-1
 479 258 l 1,13,-1
 389 101 l 1,14,15
 389 103 389 103 299 258 c 1,16,-1
 119 258 l 1,17,-1
 209 413 l 1,18,-1
 119 568 l 1,19,-1
 299 568 l 1,20,-1
 389 725 l 1,21,22
 389 723 389 723 479 568 c 1,23,-1
 658 568 l 1,24,-1
 568 413 l 1,25,-1
 658 258 l 1,12,-1
214 89 m 1,26,-1
 189 129 l 1,27,-1
 142 128 l 1,28,-1
 166 168 l 1,29,-1
 141 208 l 1,30,-1
 187 210 l 1,31,-1
 210 250 l 1,32,-1
 235 210 l 1,33,-1
 282 212 l 1,34,-1
 258 171 l 1,35,-1
 283 131 l 1,36,-1
 237 129 l 1,37,-1
 214 89 l 1,26,-1
699 83 m 1,38,39
 550 -71 550 -71 396 -71 c 0,40,41
 243 -71 243 -71 88 74 c 1,42,-1
 699 83 l 1,38,39
EndSplineSet
Validated: 1
EndChar

StartChar: i
Encoding: 105 105 75
Width: 958
GlyphClass: 2
Flags: W
AnchorPoint: "Anchor-1" 479 819 basechar 0
AnchorPoint: "Anchor-0" 479 -205 basechar 0
LayerCount: 2
Fore
SplineSet
206 449 m 1024,0,-1
633 592 m 1,1,-1
 482 443 l 1,2,-1
 437 488 l 1,3,-1
 341 584 l 1,4,-1
 206 449 l 1,5,-1
 319 336 l 1,6,-1
 353 302 l 1,7,-1
 229 177 l 1,8,-1
 358 48 l 1,9,-1
 436 127 l 1,10,-1
 483 174 l 1,11,-1
 625 31 l 1,12,-1
 761 167 l 1,13,-1
 667 261 l 1,14,-1
 618 310 l 1,15,-1
 767 458 l 1,16,-1
 633 592 l 1,1,-1
680 641 m 1,17,-1
 864 457 l 1,18,-1
 806 399 l 1,19,-1
 720 313 l 1,20,-1
 857 176 l 1,21,-1
 804 123 l 1,22,-1
 622 -59 l 1,23,-1
 578 -15 l 1,24,-1
 468 95 l 1,25,-1
 345 -28 l 1,26,-1
 313 4 l 1,27,-1
 150 167 l 1,28,-1
 177 195 l 1,29,-1
 283 301 l 1,30,-1
 170 414 l 1,31,-1
 128 456 l 1,32,-1
 298 627 l 1,33,-1
 340 669 l 1,34,-1
 478 530 l 1,35,-1
 635 686 l 1,36,-1
 680 641 l 1,17,-1
EndSplineSet
Validated: 1
EndChar

StartChar: j
Encoding: 106 106 76
AltUni2: 0002b2.ffffffff.0 0002b2.ffffffff.0
Width: 958
GlyphClass: 2
Flags: W
AnchorPoint: "Anchor-1" 479 819 basechar 0
AnchorPoint: "Anchor-0" 479 -205 basechar 0
LayerCount: 2
Fore
SplineSet
780 652 m 1,0,-1
 780 608 l 1,1,-1
 817 594 l 1,2,-1
 779 584 l 1,3,-1
 778 545 l 1,4,-1
 756 577 l 1,5,-1
 718 567 l 1,6,-1
 743 597 l 1,7,-1
 721 630 l 1,8,-1
 758 616 l 1,9,-1
 780 652 l 1,0,-1
677 617 m 1,10,-1
 677 540 l 1,11,-1
 751 517 l 1,12,-1
 678 493 l 1,13,-1
 679 416 l 1,14,-1
 633 478 l 1,15,-1
 560 453 l 1,16,-1
 605 516 l 1,17,-1
 559 577 l 1,18,-1
 632 554 l 1,19,-1
 677 617 l 1,10,-1
506 526 m 1,20,-1
 531 423 l 1,21,-1
 637 415 l 1,22,-1
 547 360 l 1,23,-1
 572 257 l 1,24,-1
 491 325 l 1,25,-1
 401 270 l 1,26,-1
 442 368 l 1,27,-1
 361 436 l 1,28,-1
 466 428 l 1,29,-1
 506 526 l 1,20,-1
327 389 m 1,30,-1
 380 241 l 1,31,-1
 536 246 l 1,32,-1
 412 150 l 1,33,-1
 465 2 l 1,34,-1
 336 90 l 1,35,-1
 211 -5 l 1,36,-1
 256 145 l 1,37,-1
 126 234 l 1,38,-1
 283 238 l 1,39,-1
 327 389 l 1,30,-1
EndSplineSet
Validated: 1
EndChar

StartChar: k
Encoding: 107 107 77
Width: 919
GlyphClass: 2
Flags: W
AnchorPoint: "Anchor-1" 465 819 basechar 0
AnchorPoint: "Anchor-0" 465 -205 basechar 0
LayerCount: 2
Fore
SplineSet
709 728 m 0,0,1
 739 728 739 728 747 697 c 0,2,3
 748 693 748 693 748 678.5 c 128,-1,4
 748 664 748 664 736 646 c 2,5,-1
 708 601 l 2,6,7
 710 599 710 599 713 597 c 0,8,9
 834 500 834 500 834 351 c 2,10,-1
 834 332 l 2,11,12
 834 188 834 188 736 73.5 c 128,-1,13
 638 -41 638 -41 495 -64 c 0,14,15
 470 -68 470 -68 440 -68 c 0,16,17
 376 -68 376 -68 315 -44 c 1,18,-1
 303 -64 l 2,19,20
 280 -101 280 -101 249 -113 c 0,21,22
 236 -118 236 -118 227 -118 c 0,23,24
 197 -118 197 -118 189 -87 c 0,25,26
 188 -83 188 -83 188 -67 c 128,-1,27
 188 -51 188 -51 199 -36 c 2,28,-1
 225 7 l 1,29,30
 220 11 220 11 216 14 c 0,31,32
 94 108 94 108 94 281 c 0,33,34
 94 414 94 414 186 531.5 c 128,-1,35
 278 649 278 649 432 674 c 0,36,37
 457 678 457 678 488 678 c 0,38,39
 557 678 557 678 619 653 c 1,40,-1
 633 675 l 2,41,42
 655 711 655 711 687 723 c 0,43,44
 700 728 700 728 709 728 c 0,0,1
540 523 m 1,45,46
 490 543 490 543 434 543 c 0,47,48
 332 543 332 543 267 468 c 0,49,50
 220 414 220 414 220 332 c 0,51,52
 220 219 220 219 306 140 c 1,53,-1
 540 523 l 1,45,46
626 466 m 1,54,-1
 394 85 l 1,55,56
 440 68 440 68 494 68 c 0,57,58
 598 68 598 68 659 141 c 1,59,-1
 661 143 l 1,60,61
 708 199 708 199 708 281 c 0,62,63
 708 388 708 388 626 466 c 1,54,-1
EndSplineSet
Validated: 1
EndChar

StartChar: l
Encoding: 108 108 78
AltUni2: 0002e1.ffffffff.0 0002e1.ffffffff.0
Width: 886
GlyphClass: 2
Flags: W
AnchorPoint: "Anchor-1" 443 819 basechar 0
AnchorPoint: "Anchor-0" 443 -205 basechar 0
LayerCount: 2
Fore
SplineSet
494 117 m 1,0,-1
 651 276 l 1,1,-1
 812 114 l 1,2,-1
 655 -46 l 1,3,-1
 494 117 l 1,0,-1
81 232 m 1,4,-1
 193 344 l 1,5,-1
 308 229 l 1,6,-1
 196 117 l 1,7,-1
 81 232 l 1,4,-1
147 464 m 1,8,-1
 305 623 l 1,9,-1
 466 460 l 1,10,-1
 308 301 l 1,11,-1
 147 464 l 1,8,-1
531 452 m 1,12,-1
 645 338 l 1,13,-1
 535 228 l 1,14,-1
 425 116 l 1,15,-1
 310 231 l 1,16,-1
 421 342 l 1,17,-1
 531 452 l 1,12,-1
533 453 m 1,18,-1
 417 568 l 1,19,-1
 529 680 l 1,20,-1
 644 565 l 1,21,-1
 533 453 l 1,18,-1
EndSplineSet
Validated: 1
EndChar

StartChar: m
Encoding: 109 109 79
Width: 1033
GlyphClass: 2
Flags: W
AnchorPoint: "Anchor-1" 516 819 basechar 0
AnchorPoint: "Anchor-0" 516 -205 basechar 0
LayerCount: 2
Fore
SplineSet
823 576 m 1,0,-1
 904 650 l 1,1,-1
 909 -31 l 1,2,-1
 820 44 l 1,3,-1
 823 576 l 1,0,-1
122 649 m 1,4,-1
 209 576 l 1,5,-1
 210 43 l 1,6,-1
 125 -31 l 1,7,-1
 122 649 l 1,4,-1
775 43 m 1,8,-1
 254 43 l 1,9,-1
 254 575 l 1,10,-1
 775 575 l 1,11,-1
 775 43 l 1,8,-1
302 306 m 0,12,13
 302 218 302 218 365 154 c 128,-1,14
 428 90 428 90 517 90 c 0,15,16
 607 90 607 90 670 153 c 0,17,18
 734 217 734 217 734 306 c 128,-1,19
 734 395 734 395 670 459 c 0,20,21
 607 522 607 522 518 522 c 0,22,23
 428 522 428 522 365 458.5 c 128,-1,24
 302 395 302 395 302 306 c 0,12,13
EndSplineSet
Validated: 1
EndChar

StartChar: n
Encoding: 110 110 80
Width: 961
GlyphClass: 2
Flags: W
AnchorPoint: "Anchor-1" 480 819 basechar 0
AnchorPoint: "Anchor-0" 480 -205 basechar 0
LayerCount: 2
Fore
SplineSet
672 273 m 1,0,1
 723 285 723 285 745 300 c 1,2,3
 745 300 745 300 745 344 c 1,4,5
 723 358 723 358 673 370 c 1,6,7
 673 321 673 321 672 273 c 1,0,1
504 388 m 1,8,9
 505 356 505 356 505 322 c 128,-1,10
 505 288 505 288 504 256 c 1,11,12
 572 257 572 257 630 266 c 1,13,14
 629 296 629 296 629 326 c 2,15,16
 629 326 629 326 629 378 c 1,17,18
 572 387 572 387 504 388 c 1,8,9
440 388 m 1,19,20
 371 387 371 387 314 379 c 1,21,22
 314 379 314 379 314 264 c 1,23,24
 371 257 371 257 440 256 c 1,25,26
 439 288 439 288 439 322 c 128,-1,27
 439 356 439 356 440 388 c 1,19,20
747 410 m 1,28,29
 753 528 753 528 768 528 c 128,-1,30
 783 528 783 528 788 393 c 1,31,32
 860 359 860 359 860 314 c 0,33,34
 860 270 860 270 787 236 c 1,35,36
 780 124 780 124 768 124 c 0,37,38
 755 124 755 124 748 220 c 1,39,40
 711 207 711 207 669 200 c 1,41,42
 663 86 663 86 652 86 c 0,43,44
 640 86 640 86 633 193 c 1,45,46
 572 184 572 184 502 183 c 1,47,48
 492 21 492 21 473 21 c 0,49,50
 453 21 453 21 443 184 c 1,51,52
 373 186 373 186 314 198 c 1,53,54
 310 -16 310 -16 294 -16 c 0,55,56
 279 -16 279 -16 278 77 c 128,-1,57
 277 170 277 170 274 206 c 1,58,59
 219 220 219 220 181 240 c 1,60,61
 174 31 174 31 151 31 c 0,62,63
 138 31 138 31 130 111 c 128,-1,64
 122 191 122 191 120 293 c 1,65,66
 114 308 114 308 117 318 c 128,-1,67
 120 328 120 328 120 337 c 0,68,69
 129 520 129 520 130 526 c 0,70,71
 143 608 143 608 152 608 c 0,72,73
 164 608 164 608 172 536 c 0,74,75
 180 465 180 465 181 390 c 1,76,77
 219 410 219 410 274 424 c 1,78,79
 280 646 280 646 294 646 c 128,-1,80
 308 646 308 646 314 432 c 1,81,82
 373 443 373 443 443 446 c 1,83,84
 452 622 452 622 473 622 c 0,85,86
 493 622 493 622 502 447 c 1,87,88
 571 446 571 446 631 437 c 1,89,90
 637 575 637 575 651 575 c 128,-1,91
 665 575 665 575 670 431 c 1,92,93
 711 422 711 422 747 410 c 1,28,29
274 372 m 1,94,95
 201 357 201 357 182 336 c 1,96,97
 182 336 182 336 182 307 c 1,98,99
 201 286 201 286 274 271 c 1,100,101
 274 271 274 271 274 372 c 1,94,95
EndSplineSet
Validated: 1
EndChar

StartChar: o
Encoding: 111 111 81
AltUni2: 0000ba.ffffffff.0 0000ba.ffffffff.0
Width: 977
GlyphClass: 2
Flags: W
AnchorPoint: "Anchor-1" 489 819 basechar 0
AnchorPoint: "Anchor-0" 489 -205 basechar 0
LayerCount: 2
Fore
SplineSet
282 274 m 1,0,-1
 282 169 l 1,1,-1
 384 169 l 1,2,-1
 384 274 l 1,3,-1
 282 274 l 1,0,-1
589 481 m 1,4,-1
 589 376 l 1,5,-1
 691 376 l 1,6,-1
 691 481 l 1,7,-1
 589 481 l 1,4,-1
280 482 m 1,8,-1
 280 377 l 1,9,-1
 383 377 l 1,10,-1
 383 482 l 1,11,-1
 280 482 l 1,8,-1
197.5 577.5 m 128,-1,13
 309 688 309 688 486.5 688 c 128,-1,14
 664 688 664 688 778.5 577 c 128,-1,15
 893 466 893 466 893 306 c 128,-1,16
 893 146 893 146 778.5 36.5 c 128,-1,17
 664 -73 664 -73 486.5 -73 c 128,-1,18
 309 -73 309 -73 197.5 36 c 128,-1,19
 86 145 86 145 86 306 c 128,-1,12
 86 467 86 467 197.5 577.5 c 128,-1,13
588 169 m 1,20,-1
 487 169 l 1,21,-1
 386 169 l 1,22,-1
 386 64 l 1,23,-1
 487 65 l 1,24,-1
 588 65 l 1,25,-1
 588 169 l 1,20,-1
589 169 m 1,26,-1
 691 169 l 1,27,-1
 691 274 l 1,28,-1
 589 274 l 1,29,-1
 589 169 l 1,26,-1
EndSplineSet
Validated: 1
EndChar

StartChar: p
Encoding: 112 112 82
Width: 970
GlyphClass: 2
Flags: W
AnchorPoint: "Anchor-1" 485 819 basechar 0
AnchorPoint: "Anchor-0" 485 -205 basechar 0
LayerCount: 2
Fore
SplineSet
345 532 m 1,0,-1
 403 564 l 1,1,-1
 433 581 l 1,2,-1
 404 598 l 1,3,-1
 405 631 l 1,4,-1
 346 599 l 1,5,-1
 317 583 l 1,6,-1
 346 565 l 1,7,-1
 345 532 l 1,0,-1
157 341 m 1,8,-1
 215 373 l 1,9,-1
 245 389 l 1,10,-1
 216 406 l 1,11,-1
 216 440 l 1,12,-1
 158 407 l 1,13,-1
 129 391 l 1,14,-1
 158 374 l 1,15,-1
 157 341 l 1,8,-1
380 260 m 1,16,-1
 439 293 l 1,17,-1
 468 309 l 1,18,-1
 439 326 l 1,19,-1
 440 359 l 1,20,-1
 382 327 l 1,21,-1
 352 311 l 1,22,-1
 381 294 l 1,23,-1
 380 260 l 1,16,-1
707 95 m 1,24,-1
 638 186 l 1,25,-1
 682 292 l 1,26,-1
 795 307 l 1,27,-1
 865 216 l 1,28,-1
 821 110 l 1,29,-1
 707 95 l 1,24,-1
296 154 m 0,30,31
 296 106 296 106 424 90 c 0,32,33
 432 89 432 89 443 89 c 0,34,35
 557 89 557 89 622 147 c 1,36,-1
 639 147 l 1,37,-1
 640 147 l 2,38,39
 648 150 648 150 659 126 c 0,40,41
 671 100 671 100 671 76 c 2,42,-1
 671 72 l 1,43,44
 649 38 649 38 612 25 c 128,-1,45
 575 12 575 12 541 12 c 2,46,-1
 512 14 l 2,47,48
 454 18 454 18 453 18 c 0,49,50
 294 18 294 18 226 42 c 0,51,52
 189 55 189 55 167.5 78.5 c 128,-1,53
 146 102 146 102 143 134 c 1,54,55
 153 167 153 167 204 231 c 1,56,-1
 204 279 l 1,57,-1
 196 279 l 1,58,59
 150 305 150 305 120.5 364.5 c 128,-1,60
 91 424 91 424 90 486 c 1,61,62
 98 489 98 489 104 489 c 2,63,-1
 123 489 l 2,64,65
 141 489 141 489 174 476 c 0,66,67
 257 444 257 444 257 402 c 2,68,-1
 257 363 l 1,69,70
 263 363 263 363 263 360.5 c 128,-1,71
 263 358 263 358 267.5 358 c 128,-1,72
 272 358 272 358 276 358 c 0,73,74
 322 358 322 358 380 416 c 1,75,76
 368 483 368 483 316 528 c 128,-1,77
 264 573 264 573 200 587 c 1,78,79
 224 624 224 624 272.5 638.5 c 128,-1,80
 321 653 321 653 368 653 c 2,81,-1
 380 653 l 2,82,83
 410 653 410 653 436 632 c 0,84,85
 461 612 461 612 461 585 c 0,86,87
 461 584 461 584 460 584 c 1,88,89
 460 555 460 555 450.5 526.5 c 128,-1,90
 441 498 441 498 441 493 c 0,91,92
 441 485 441 485 441 485 c 2,93,94
 442 441 442 441 460 412 c 0,95,96
 477 385 477 385 496 370 c 0,97,98
 534 340 534 340 534 307 c 0,99,100
 534 305 534 305 534 302 c 2,101,102
 534 302 534 302 534 297 c 0,103,104
 534 235 534 235 402 225 c 0,105,106
 336 220 336 220 316 202 c 128,-1,107
 296 184 296 184 296 154 c 0,30,31
EndSplineSet
Validated: 1
EndChar

StartChar: q
Encoding: 113 113 83
Width: 1106
GlyphClass: 2
Flags: W
AnchorPoint: "Anchor-1" 553 819 basechar 0
AnchorPoint: "Anchor-0" 553 -205 basechar 0
LayerCount: 2
Fore
SplineSet
197 182 m 1,0,-1
 293 205 l 1,1,-1
 310 296 l 1,2,-1
 194 377 l 1,3,-1
 197 182 l 1,0,-1
635 203 m 1,4,-1
 796 155 l 1,5,-1
 794 470 l 1,6,-1
 628 347 l 1,7,-1
 635 203 l 1,4,-1
113 109 m 1,8,-1
 110 462 l 1,9,-1
 389 462 l 1,10,-1
 391 109 l 1,11,-1
 113 109 l 1,8,-1
455 557 m 1,12,-1
 974 557 l 1,13,-1
 974 78 l 1,14,-1
 455 78 l 1,15,-1
 455 557 l 1,12,-1
EndSplineSet
Validated: 1
EndChar

StartChar: r
Encoding: 114 114 84
AltUni2: 0002b3.ffffffff.0 0002b3.ffffffff.0
Width: 921
GlyphClass: 2
Flags: W
AnchorPoint: "Anchor-1" 460 819 basechar 0
AnchorPoint: "Anchor-0" 460 -205 basechar 0
LayerCount: 2
Fore
SplineSet
1960 -235 m 1024,0,-1
218 484 m 1,1,2
 219 503 219 503 233 503 c 0,3,4
 241 503 241 503 258 495 c 0,5,6
 421 416 421 416 421 357 c 0,7,8
 421 349 421 349 416 337 c 2,9,-1
 327 116 l 1,10,11
 307 90 307 90 271 90 c 0,12,13
 246 90 246 90 246 107 c 0,14,15
 246 116 246 116 251 126 c 0,16,17
 314 249 314 249 315 276 c 1,18,-1
 218 484 l 1,1,2
93 253 m 128,-1,20
 93 286 93 286 118 309 c 128,-1,21
 143 332 143 332 180 332 c 2,22,23
 180 332 180 332 183 332 c 2,24,25
 183 332 183 332 186 332 c 2,26,27
 186 332 186 332 188 332 c 2,28,29
 188 332 188 332 190 332 c 2,30,31
 190 332 190 332 242 309 c 0,32,33
 267 298 267 298 267 253 c 0,34,35
 267 219 267 219 242 197 c 0,36,37
 216 174 216 174 180 174 c 128,-1,38
 144 174 144 174 118.5 197 c 128,-1,19
 93 220 93 220 93 253 c 128,-1,20
189 192 m 1,39,40
 198 200 198 200 223 219 c 0,41,42
 251 240 251 240 251 251 c 0,43,44
 251 255 251 255 227 299 c 0,45,46
 219 313 219 313 200 313 c 0,47,48
 198 313 198 313 190 311 c 0,49,50
 119 294 119 294 119 277 c 2,51,52
 119 277 119 277 119 276 c 0,53,54
 121 272 121 272 121 271 c 0,55,56
 126 238 126 238 130 236 c 0,57,58
 131 209 131 209 138 207 c 2,59,-1
 189 192 l 1,39,40
333 102 m 1,60,61
 384 118 384 118 507 170 c 0,62,63
 533 181 533 181 533 219 c 0,64,65
 533 271 533 271 487 368 c 0,66,67
 398 556 398 556 398 627 c 0,68,69
 398 670 398 670 430 670 c 0,70,71
 440 670 440 670 832 365 c 0,72,73
 841 358 841 358 821 337 c 0,74,75
 453 -58 453 -58 355 -58 c 0,76,77
 316 -58 316 -58 316 -3 c 2,78,79
 316 -3 316 -3 316 0 c 0,80,81
 316 49 316 49 333 102 c 1,60,61
EndSplineSet
Validated: 1
EndChar

StartChar: s
Encoding: 115 115 85
AltUni2: 0002e2.ffffffff.0 00017f.ffffffff.0 0002e2.ffffffff.0 00017f.ffffffff.0
Width: 527
GlyphClass: 2
Flags: W
LayerCount: 2
Fore
SplineSet
316 13 m 0,0,1
 316 -35 316 -35 275 -58 c 0,2,3
 256 -68 256 -68 244 -68 c 0,4,5
 196 -68 196 -68 174 -39 c 0,6,7
 161 -26 161 -26 157.5 -8.5 c 128,-1,8
 154 9 154 9 154 13 c 0,9,10
 154 62 154 62 196 84 c 0,11,12
 213 94 213 94 235 94 c 0,13,14
 283 94 283 94 306 53 c 0,15,16
 316 34 316 34 316 13 c 0,0,1
223 135 m 0,17,18
 191 135 191 135 184 166 c 0,19,20
 183 170 183 170 183 176 c 0,21,22
 183 223 183 223 273 298 c 0,23,24
 344 359 344 359 361 379.5 c 128,-1,25
 378 400 378 400 378 423 c 0,26,27
 378 491 378 491 301 524 c 0,28,29
 259 542 259 542 206.5 542 c 128,-1,30
 154 542 154 542 99 521 c 0,31,32
 84 516 84 516 76 516 c 0,33,34
 44 516 44 516 37 547 c 0,35,36
 36 551 36 551 36 558 c 0,37,38
 36 599 36 599 76 632 c 0,39,40
 89 642 89 642 99 646 c 0,41,42
 174 677 174 677 258 677 c 0,43,44
 380 677 380 677 451 608 c 0,45,46
 505 554 505 554 505 477.5 c 128,-1,47
 505 401 505 401 438 337 c 0,48,49
 427 326 427 326 403 305 c 0,50,51
 342 252 342 252 322 218 c 0,52,53
 312 198 312 198 305.5 177 c 128,-1,54
 299 156 299 156 258 141 c 0,55,56
 240 135 240 135 223 135 c 0,17,18
EndSplineSet
Validated: 1
EndChar

StartChar: braceleft
Encoding: 123 123 90
Width: 321
GlyphClass: 2
Flags: W
LayerCount: 2
Fore
SplineSet
88 385 m 2,0,-1
 86 467 l 1,1,2
 88 585 88 585 151 660 c 0,3,4
 176 693 176 693 214 716 c 0,5,6
 234 727 234 727 251 727 c 0,7,8
 283 727 283 727 289 695 c 0,9,10
 290 692 290 692 290 685 c 0,11,12
 290 646 290 646 255 614 c 0,13,14
 234 600 234 600 229 595 c 0,15,16
 212 575 212 575 212 519 c 2,17,-1
 214 437 l 1,18,19
 212 342 212 342 171 272 c 1,20,21
 211 205 211 205 211 104 c 0,22,23
 211 86 211 86 210 71 c 2,24,-1
 210 41 l 2,25,26
 211 -68 211 -68 274 -113 c 0,27,28
 289 -125 289 -125 290 -147 c 0,29,30
 288 -178 288 -178 263 -208.5 c 128,-1,31
 238 -239 238 -239 203 -241 c 0,32,33
 187 -239 187 -239 165 -222 c 0,34,35
 84 -153 84 -153 84 -10 c 0,36,37
 84 8 84 8 85 23 c 2,38,-1
 85 53 l 2,39,40
 83 150 83 150 38 198 c 0,41,42
 27 211 27 211 27 228 c 0,43,44
 27 262 27 262 57 293 c 0,45,46
 60 298 60 298 63 299 c 0,47,48
 88 321 88 321 88 385 c 2,0,-1
EndSplineSet
Validated: 1
EndChar

StartChar: braceright
Encoding: 125 125 91
Width: 320
GlyphClass: 2
Flags: W
LayerCount: 2
Fore
SplineSet
232 101 m 2,0,-1
 234 19 l 1,1,2
 231 -152 231 -152 106 -229 c 0,3,4
 85 -241 85 -241 70 -241 c 0,5,6
 38 -241 38 -241 32 -209 c 0,7,8
 31 -206 31 -206 31 -199 c 0,9,10
 31 -160 31 -160 66 -128 c 0,11,12
 78 -120 78 -120 84 -116 c 0,13,14
 109 -99 109 -99 109 -33 c 2,15,-1
 106 49 l 1,16,17
 108 145 108 145 150 214 c 1,18,19
 110 281 110 281 110 382 c 0,20,21
 110 400 110 400 111 415 c 2,22,-1
 111 445 l 2,23,24
 109 555 109 555 46 599 c 0,25,26
 32 609 32 609 32 635 c 0,27,28
 32 666 32 666 58 696 c 0,29,30
 82 726 82 726 118 727 c 2,31,-1
 124 727 l 2,32,33
 126 725 126 725 133 725 c 1,34,35
 138 720 138 720 140 720 c 0,36,37
 142 718 142 718 146 716 c 2,38,-1
 156 709 l 1,39,40
 237 640 237 640 237 497 c 0,41,42
 237 478 237 478 236 463 c 2,43,-1
 236 433 l 2,44,45
 238 337 238 337 283 289 c 0,46,47
 294 276 294 276 294 258 c 0,48,49
 294 224 294 224 263 193 c 0,50,51
 260 188 260 188 257 187 c 0,52,53
 232 165 232 165 232 101 c 2,0,-1
EndSplineSet
Validated: 1
EndChar

StartChar: asciitilde
Encoding: 126 126 92
Width: 560
GlyphClass: 2
Flags: W
LayerCount: 2
Fore
SplineSet
169 232 m 1,0,1
 153 195 153 195 117 177 c 0,2,3
 99 169 99 169 88 169 c 0,4,5
 56 169 56 169 50 201 c 0,6,7
 49 204 49 204 49 213 c 128,-1,8
 49 222 49 222 50 225 c 0,9,10
 59 268 59 268 89 304 c 0,11,12
 143 366 143 366 216 367 c 0,13,14
 272 367 272 367 323 325 c 0,15,16
 325 324 325 324 328.5 320.5 c 128,-1,17
 332 317 332 317 335 314.5 c 128,-1,18
 338 312 338 312 340 310.5 c 128,-1,19
 342 309 342 309 358 297 c 128,-1,20
 374 285 374 285 390 282 c 1,21,22
 403 317 403 317 441 337 c 0,23,24
 459 345 459 345 471 345 c 0,25,26
 503 345 503 345 509 313 c 0,27,28
 510 310 510 310 510 303 c 0,29,30
 508 254 508 254 471 207 c 0,31,32
 418 147 418 147 349 146 c 0,33,34
 297 146 297 146 247 187 c 1,35,-1
 242 192 l 2,36,37
 240 193 240 193 237 196 c 128,-1,38
 234 199 234 199 233 199 c 0,39,40
 189 231 189 231 169 232 c 1,0,1
EndSplineSet
Validated: 1
EndChar

StartChar: Aacute
Encoding: 193 193 101
Width: 282
GlyphClass: 2
Flags: W
LayerCount: 2
Fore
SplineSet
211 -130 m 2,0,1
 211 -161 211 -161 184 -192 c 0,2,3
 160 -222 160 -222 126 -223 c 2,4,5
 126 -223 126 -223 124 -223 c 0,6,7
 96 -223 96 -223 86 -192 c 0,8,9
 85 -189 85 -189 85 -182 c 2,10,-1
 85 736 l 2,11,12
 85 761 85 761 112 796 c 0,13,14
 137 828 137 828 170 828 c 0,15,16
 171 828 171 828 173 828 c 0,17,18
 196 828 196 828 210 787 c 1,19,20
 210 787 210 787 211 787 c 1,21,-1
 211 -130 l 2,0,1
EndSplineSet
Validated: 1
EndChar

StartChar: Oslash
Encoding: 216 216 108
Width: 919
GlyphClass: 2
Flags: W
AnchorPoint: "Anchor-1" 465 819 basechar 0
AnchorPoint: "Anchor-0" 465 -205 basechar 0
LayerCount: 2
Fore
SplineSet
709 728 m 0,0,1
 739 728 739 728 747 697 c 0,2,3
 748 693 748 693 748 678.5 c 128,-1,4
 748 664 748 664 736 646 c 2,5,-1
 708 601 l 2,6,7
 710 599 710 599 713 597 c 0,8,9
 834 500 834 500 834 351 c 2,10,-1
 834 332 l 2,11,12
 834 188 834 188 736 73.5 c 128,-1,13
 638 -41 638 -41 495 -64 c 0,14,15
 470 -68 470 -68 440 -68 c 0,16,17
 376 -68 376 -68 315 -44 c 1,18,-1
 303 -64 l 2,19,20
 280 -101 280 -101 249 -113 c 0,21,22
 236 -118 236 -118 227 -118 c 0,23,24
 197 -118 197 -118 189 -87 c 0,25,26
 188 -83 188 -83 188 -67 c 128,-1,27
 188 -51 188 -51 199 -36 c 2,28,-1
 225 7 l 1,29,30
 220 11 220 11 216 14 c 0,31,32
 94 108 94 108 94 281 c 0,33,34
 94 414 94 414 186 531.5 c 128,-1,35
 278 649 278 649 432 674 c 0,36,37
 457 678 457 678 488 678 c 0,38,39
 557 678 557 678 619 653 c 1,40,-1
 633 675 l 2,41,42
 655 711 655 711 687 723 c 0,43,44
 700 728 700 728 709 728 c 0,0,1
540 523 m 1,45,46
 490 543 490 543 434 543 c 0,47,48
 332 543 332 543 267 468 c 0,49,50
 220 414 220 414 220 332 c 0,51,52
 220 219 220 219 306 140 c 1,53,-1
 540 523 l 1,45,46
626 466 m 1,54,-1
 394 85 l 1,55,56
 440 68 440 68 494 68 c 0,57,58
 598 68 598 68 659 141 c 1,59,-1
 661 143 l 1,60,61
 708 199 708 199 708 281 c 0,62,63
 708 388 708 388 626 466 c 1,54,-1
EndSplineSet
Validated: 1
EndChar

StartChar: Udieresis
Encoding: 220 220 109
Width: 977
GlyphClass: 2
Flags: W
AnchorPoint: "Anchor-1" 479 819 basechar 0
AnchorPoint: "Anchor-0" 479 -205 basechar 0
LayerCount: 2
Fore
SplineSet
457 665 m 0,0,1
 575 665 575 665 633 645 c 0,2,3
 730 610 730 610 786.5 566 c 128,-1,4
 843 522 843 522 865.5 462 c 128,-1,5
 888 402 888 402 899.5 347.5 c 128,-1,6
 911 293 911 293 911 276 c 0,7,8
 911 200 911 200 833 116.5 c 128,-1,9
 755 33 755 33 665 -12 c 2,10,-1
 595 -46 l 1,11,-1
 467 -46 l 2,12,13
 372 -46 372 -46 348.5 -43 c 128,-1,14
 325 -40 325 -40 284.5 -20 c 128,-1,15
 244 0 244 0 202.5 42.5 c 128,-1,16
 161 85 161 85 138 133.5 c 128,-1,17
 115 182 115 182 99.5 270.5 c 128,-1,18
 84 359 84 359 72 393.5 c 128,-1,19
 60 428 60 428 60 458 c 128,-1,20
 60 488 60 488 65 499.5 c 128,-1,21
 70 511 70 511 95.5 535 c 128,-1,22
 121 559 121 559 181 578 c 128,-1,23
 241 597 241 597 302.5 626 c 128,-1,24
 364 655 364 655 389 660 c 128,-1,25
 414 665 414 665 457 665 c 0,0,1
142 473 m 2,26,27
 128 470 128 470 128 455 c 128,-1,28
 128 440 128 440 136.5 421.5 c 128,-1,29
 145 403 145 403 151.5 398.5 c 128,-1,30
 158 394 158 394 166.5 396.5 c 128,-1,31
 175 399 175 399 188.5 399 c 128,-1,32
 202 399 202 399 228 393 c 128,-1,33
 254 387 254 387 260 387 c 2,34,-1
 266 387 l 2,35,36
 274 387 274 387 274 390 c 0,37,38
 274 394 274 394 253 405 c 128,-1,39
 232 416 232 416 232 426 c 0,40,41
 232 437 232 437 262 452 c 2,42,-1
 289 466 l 1,43,-1
 260 466 l 1,44,-1
 202 470 l 2,45,46
 156 473 156 473 145 473 c 2,47,-1
 142 473 l 2,26,27
694 454 m 2,48,49
 720 434 720 434 737 405 c 0,50,51
 748 387 748 387 774 370.5 c 128,-1,52
 800 354 800 354 806 354 c 0,53,54
 814 354 814 354 815 358 c 0,55,56
 815 376 815 376 807 401.5 c 128,-1,57
 799 427 799 427 797.5 432.5 c 128,-1,58
 796 438 796 438 790.5 445.5 c 128,-1,59
 785 453 785 453 782.5 455 c 128,-1,60
 780 457 780 457 768 460.5 c 128,-1,61
 756 464 756 464 747 465 c 128,-1,62
 738 466 738 466 724.5 467.5 c 128,-1,63
 711 469 711 469 709.5 469.5 c 128,-1,64
 708 470 708 470 668 475 c 1,65,-1
 694 454 l 2,48,49
808.5 260.5 m 128,-1,67
 809 267 809 267 799 273.5 c 128,-1,68
 789 280 789 280 767.5 280 c 128,-1,69
 746 280 746 280 738 270 c 0,70,71
 728 256 728 256 706 208 c 1,72,-1
 737 208 l 2,73,74
 769 208 769 208 772 207 c 128,-1,75
 775 206 775 206 776 206 c 0,76,77
 782 206 782 206 795 230 c 128,-1,66
 808 254 808 254 808.5 260.5 c 128,-1,67
321 217.5 m 128,-1,79
 317 230 317 230 300 243 c 128,-1,80
 283 256 283 256 270.5 256 c 128,-1,81
 258 256 258 256 257 251.5 c 128,-1,82
 256 247 256 247 256 233 c 128,-1,83
 256 219 256 219 258 215 c 0,84,85
 266 139 266 139 270.5 125 c 128,-1,86
 275 111 275 111 291 105 c 1,87,88
 290 105 290 105 310 98 c 128,-1,89
 330 91 330 91 336 90.5 c 128,-1,90
 342 90 342 90 336 102.5 c 128,-1,91
 330 115 330 115 327.5 160 c 128,-1,78
 325 205 325 205 321 217.5 c 128,-1,79
683 198 m 0,92,93
 685 202 685 202 685 204.5 c 128,-1,94
 685 207 685 207 675.5 207 c 128,-1,95
 666 207 666 207 630 201.5 c 128,-1,96
 594 196 594 196 562.5 184 c 128,-1,97
 531 172 531 172 473 138 c 128,-1,98
 415 104 415 104 388 96.5 c 128,-1,99
 361 89 361 89 356.5 85 c 128,-1,100
 352 81 352 81 359 68.5 c 128,-1,101
 366 56 366 56 383.5 56.5 c 128,-1,102
 401 57 401 57 457.5 76 c 128,-1,103
 514 95 514 95 558.5 103 c 128,-1,104
 603 111 603 111 620 124.5 c 128,-1,105
 637 138 637 138 683 198 c 0,92,93
EndSplineSet
Validated: 1
EndChar

StartChar: dotlessi
Encoding: 305 305 111
Width: 246
GlyphClass: 2
Flags: W
LayerCount: 2
Fore
SplineSet
186 26 m 2,0,1
 184 -7 184 -7 159.5 -36.5 c 128,-1,2
 135 -66 135 -66 101 -67 c 0,3,4
 100 -67 100 -67 99 -67 c 0,5,6
 67 -67 67 -67 61 -36 c 0,7,8
 60 -33 60 -33 60 -26 c 2,9,-1
 60 585 l 2,10,11
 61 614 61 614 86.5 645 c 128,-1,12
 112 676 112 676 146 677 c 0,13,14
 147 677 147 677 148 677 c 0,15,16
 180 677 180 677 185 646 c 0,17,18
 186 643 186 643 186 636 c 2,19,-1
 186 26 l 2,0,1
EndSplineSet
Validated: 1
EndChar

StartChar: acutecomb
Encoding: 769 769 113
Width: 300
GlyphClass: 2
Flags: W
LayerCount: 2
Fore
SplineSet
275 657 m 0,0,1
 275 636 275 636 263 625 c 2,2,-1
 85 487 l 2,3,4
 78 482 78 482 67 480 c 0,5,6
 55 480 55 480 41 489 c 0,7,8
 10 510 10 510 10 540 c 0,9,10
 10 554 10 554 17 561 c 2,11,-1
 160 739 l 2,12,13
 169 748 169 748 188 750 c 0,14,15
 210 750 210 750 235 730 c 0,16,17
 275 697 275 697 275 657 c 0,0,1
EndSplineSet
Validated: 1
EndChar

StartChar: uni0312
Encoding: 786 786 128
Width: 540
GlyphClass: 4
Flags: W
AnchorPoint: "Anchor-2" 270 480 basemark 0
AnchorPoint: "Anchor-2" 270 170 mark 0
AnchorPoint: "Anchor-1" 270 273 mark 0
LayerCount: 2
Fore
SplineSet
502 212 m 1,0,-1
 364 348 l 1,1,-1
 393 216 l 1,2,-1
 248 348 l 1,3,-1
 272 214 l 1,4,-1
 182 320 l 1,5,-1
 181 210 l 1,6,-1
 57 328 l 1,7,-1
 66 206 l 1,8,-1
 47 260 l 1,9,-1
 38 414 l 1,10,-1
 150 280 l 1,11,-1
 137 423 l 1,12,-1
 244 274 l 1,13,-1
 204 422 l 1,14,-1
 334 298 l 1,15,-1
 325 414 l 1,16,-1
 455 307 l 1,17,-1
 472 293 l 1,18,-1
 472 419 l 1,19,-1
 501 362 l 1,20,-1
 502 212 l 1,0,-1
EndSplineSet
Validated: 1
EndChar

StartChar: uni0313
Encoding: 787 787 129
Width: 542
GlyphClass: 4
Flags: W
AnchorPoint: "Anchor-2" 271 480 basemark 0
AnchorPoint: "Anchor-2" 271 180 mark 0
AnchorPoint: "Anchor-1" 271 280 mark 0
LayerCount: 2
Fore
SplineSet
491 272 m 1,0,-1
 491 264 l 1,1,-1
 491 225 l 1,2,-1
 51 224 l 1,3,-1
 51 244 l 1,4,-1
 51 377 l 1,5,-1
 89 377 l 1,6,-1
 90 272 l 1,7,-1
 445 272 l 1,8,-1
 445 379 l 1,9,-1
 491 379 l 1,10,-1
 491 272 l 1,0,-1
EndSplineSet
Validated: 1
EndChar

StartChar: uni0315
Encoding: 789 789 130
Width: 416
GlyphClass: 2
Flags: W
AnchorPoint: "Anchor-3" 207 250 basemark 0
AnchorPoint: "Anchor-3" 207 400 mark 0
AnchorPoint: "Anchor-0" 207 410 mark 0
LayerCount: 2
Fore
SplineSet
145 296 m 128,-1,1
 131 296 131 296 122 305 c 128,-1,2
 113 314 113 314 112 329 c 128,-1,3
 111 344 111 344 121 354 c 128,-1,4
 131 364 131 364 145 364 c 128,-1,5
 159 364 159 364 169 354 c 128,-1,6
 179 344 179 344 179 330 c 128,-1,7
 179 316 179 316 169 306 c 128,-1,0
 159 296 159 296 145 296 c 128,-1,1
236 330 m 0,8,9
 235 344 235 344 245 354 c 128,-1,10
 255 364 255 364 269 364 c 128,-1,11
 283 364 283 364 293 354 c 128,-1,12
 303 344 303 344 303 330 c 128,-1,13
 303 316 303 316 293 306 c 128,-1,14
 283 296 283 296 269 296 c 128,-1,15
 255 296 255 296 245 306 c 0,16,17
 237 314 237 314 236 330 c 0,8,9
EndSplineSet
Validated: 1
EndChar

StartChar: uni0327
Encoding: 807 807 132
Width: 265
GlyphClass: 2
Flags: W
LayerCount: 2
Fore
SplineSet
109 82 m 0,0,1
 114 82 114 82 130.5 76.5 c 128,-1,2
 147 71 147 71 151.5 57.5 c 128,-1,3
 156 44 156 44 158 40 c 0,4,5
 170 19 170 19 199 -4 c 0,6,7
 250 -45 250 -45 250 -86 c 2,8,-1
 250 -88 l 2,9,10
 250 -127 250 -127 219.5 -158.5 c 128,-1,11
 189 -190 189 -190 129 -190 c 2,12,-1
 126 -190 l 2,13,14
 88 -190 88 -190 47 -174 c 0,15,16
 41 -172 41 -172 35 -167 c 0,17,18
 15 -152 15 -152 15 -130 c 0,19,20
 15 -126 15 -126 16 -124 c 0,21,22
 24 -109 24 -109 35 -109 c 0,23,24
 37 -109 37 -109 58 -115.5 c 128,-1,25
 79 -122 79 -122 103.5 -122 c 128,-1,26
 128 -122 128 -122 148 -113 c 0,27,28
 186 -96 186 -96 186 -62 c 0,29,30
 186 -53 186 -53 178 -42 c 0,31,32
 170 -32 170 -32 134 0 c 0,33,34
 90 38 90 38 89 60 c 2,35,-1
 89 66 l 2,36,37
 91 82 91 82 109 82 c 0,0,1
EndSplineSet
Validated: 1
EndChar

StartChar: uni0328
Encoding: 808 808 133
Width: 265
GlyphClass: 2
Flags: W
LayerCount: 2
Fore
SplineSet
156 82 m 0,0,1
 174 82 174 82 176 66 c 2,2,-1
 176 60 l 2,3,4
 176 38 176 38 135.5 3.5 c 128,-1,5
 95 -31 95 -31 87 -42 c 128,-1,6
 79 -53 79 -53 79 -62 c 0,7,8
 79 -96 79 -96 117 -113 c 0,9,10
 137 -122 137 -122 161.5 -122 c 128,-1,11
 186 -122 186 -122 207 -115.5 c 128,-1,12
 228 -109 228 -109 230 -109 c 0,13,14
 241 -109 241 -109 249 -124 c 0,15,16
 250 -126 250 -126 250 -130 c 0,17,18
 250 -152 250 -152 230 -167 c 0,19,20
 224 -172 224 -172 218 -174 c 0,21,22
 177 -190 177 -190 139 -190 c 2,23,-1
 136 -190 l 2,24,25
 76 -190 76 -190 45.5 -158.5 c 128,-1,26
 15 -127 15 -127 15 -88 c 2,27,-1
 15 -86 l 2,28,29
 15 -45 15 -45 66 -4 c 0,30,31
 95 19 95 19 107 40 c 0,32,33
 109 44 109 44 113.5 57.5 c 128,-1,34
 118 71 118 71 134.5 76.5 c 128,-1,35
 151 82 151 82 156 82 c 0,0,1
EndSplineSet
Validated: 1
EndChar

StartChar: fraction
Encoding: 8260 8260 136
Width: 537
GlyphClass: 2
Flags: W
LayerCount: 2
Fore
SplineSet
460 678 m 0,0,1
 491 678 491 678 498 647 c 0,2,3
 499 643 499 643 499 638 c 0,4,5
 499 622 499 622 487 596 c 2,6,-1
 154 -14 l 2,7,8
 138 -48 138 -48 100 -63 c 0,9,10
 87 -68 87 -68 78 -68 c 0,11,12
 47 -68 47 -68 40 -37 c 0,13,14
 39 -33 39 -33 40 -18 c 128,-1,15
 41 -3 41 -3 50 14 c 2,16,-1
 384 625 l 2,17,18
 400 660 400 660 438 673 c 0,19,20
 451 678 451 678 460 678 c 0,0,1
EndSplineSet
Validated: 1
EndChar

StartChar: uni2639
Encoding: 9785 9785 137
Width: 977
GlyphClass: 2
Flags: W
AnchorPoint: "Anchor-1" 479 819 basechar 0
AnchorPoint: "Anchor-0" 479 -205 basechar 0
LayerCount: 2
Fore
SplineSet
457 665 m 0,0,1
 575 665 575 665 633 645 c 0,2,3
 730 610 730 610 786.5 566 c 128,-1,4
 843 522 843 522 865.5 462 c 128,-1,5
 888 402 888 402 899.5 347.5 c 128,-1,6
 911 293 911 293 911 276 c 0,7,8
 911 200 911 200 833 116.5 c 128,-1,9
 755 33 755 33 665 -12 c 2,10,-1
 595 -46 l 1,11,-1
 467 -46 l 2,12,13
 372 -46 372 -46 348.5 -43 c 128,-1,14
 325 -40 325 -40 284.5 -20 c 128,-1,15
 244 0 244 0 202.5 42.5 c 128,-1,16
 161 85 161 85 138 133.5 c 128,-1,17
 115 182 115 182 99.5 270.5 c 128,-1,18
 84 359 84 359 72 393.5 c 128,-1,19
 60 428 60 428 60 458 c 128,-1,20
 60 488 60 488 65 499.5 c 128,-1,21
 70 511 70 511 95.5 535 c 128,-1,22
 121 559 121 559 181 578 c 128,-1,23
 241 597 241 597 302.5 626 c 128,-1,24
 364 655 364 655 389 660 c 128,-1,25
 414 665 414 665 457 665 c 0,0,1
142 473 m 2,26,27
 128 470 128 470 128 455 c 128,-1,28
 128 440 128 440 136.5 421.5 c 128,-1,29
 145 403 145 403 151.5 398.5 c 128,-1,30
 158 394 158 394 166.5 396.5 c 128,-1,31
 175 399 175 399 188.5 399 c 128,-1,32
 202 399 202 399 228 393 c 128,-1,33
 254 387 254 387 260 387 c 2,34,-1
 266 387 l 2,35,36
 274 387 274 387 274 390 c 0,37,38
 274 394 274 394 253 405 c 128,-1,39
 232 416 232 416 232 426 c 0,40,41
 232 437 232 437 262 452 c 2,42,-1
 289 466 l 1,43,-1
 260 466 l 1,44,-1
 202 470 l 2,45,46
 156 473 156 473 145 473 c 2,47,-1
 142 473 l 2,26,27
694 454 m 2,48,49
 720 434 720 434 737 405 c 0,50,51
 748 387 748 387 774 370.5 c 128,-1,52
 800 354 800 354 806 354 c 0,53,54
 814 354 814 354 815 358 c 0,55,56
 815 376 815 376 807 401.5 c 128,-1,57
 799 427 799 427 797.5 432.5 c 128,-1,58
 796 438 796 438 790.5 445.5 c 128,-1,59
 785 453 785 453 782.5 455 c 128,-1,60
 780 457 780 457 768 460.5 c 128,-1,61
 756 464 756 464 747 465 c 128,-1,62
 738 466 738 466 724.5 467.5 c 128,-1,63
 711 469 711 469 709.5 469.5 c 128,-1,64
 708 470 708 470 668 475 c 1,65,-1
 694 454 l 2,48,49
808.5 260.5 m 128,-1,67
 809 267 809 267 799 273.5 c 128,-1,68
 789 280 789 280 767.5 280 c 128,-1,69
 746 280 746 280 738 270 c 0,70,71
 728 256 728 256 706 208 c 1,72,-1
 737 208 l 2,73,74
 769 208 769 208 772 207 c 128,-1,75
 775 206 775 206 776 206 c 0,76,77
 782 206 782 206 795 230 c 128,-1,66
 808 254 808 254 808.5 260.5 c 128,-1,67
321 217.5 m 128,-1,79
 317 230 317 230 300 243 c 128,-1,80
 283 256 283 256 270.5 256 c 128,-1,81
 258 256 258 256 257 251.5 c 128,-1,82
 256 247 256 247 256 233 c 128,-1,83
 256 219 256 219 258 215 c 0,84,85
 266 139 266 139 270.5 125 c 128,-1,86
 275 111 275 111 291 105 c 1,87,88
 290 105 290 105 310 98 c 128,-1,89
 330 91 330 91 336 90.5 c 128,-1,90
 342 90 342 90 336 102.5 c 128,-1,91
 330 115 330 115 327.5 160 c 128,-1,78
 325 205 325 205 321 217.5 c 128,-1,79
683 198 m 0,92,93
 685 202 685 202 685 204.5 c 128,-1,94
 685 207 685 207 675.5 207 c 128,-1,95
 666 207 666 207 630 201.5 c 128,-1,96
 594 196 594 196 562.5 184 c 128,-1,97
 531 172 531 172 473 138 c 128,-1,98
 415 104 415 104 388 96.5 c 128,-1,99
 361 89 361 89 356.5 85 c 128,-1,100
 352 81 352 81 359 68.5 c 128,-1,101
 366 56 366 56 383.5 56.5 c 128,-1,102
 401 57 401 57 457.5 76 c 128,-1,103
 514 95 514 95 558.5 103 c 128,-1,104
 603 111 603 111 620 124.5 c 128,-1,105
 637 138 637 138 683 198 c 0,92,93
EndSplineSet
Validated: 1
EndChar

StartChar: musicalnotedbl
Encoding: 9835 9835 138
Width: 969
GlyphClass: 2
Flags: W
LayerCount: 2
Fore
SplineSet
944 678 m 1,0,1
 947 678 947 678 947 676 c 128,-1,2
 947 674 947 674 944 661 c 2,3,-1
 944 157 l 2,4,5
 944 95 944 95 881.5 62.5 c 128,-1,6
 819 30 819 30 732.5 30 c 128,-1,7
 646 30 646 30 591 60.5 c 128,-1,8
 536 91 536 91 536 138.5 c 128,-1,9
 536 186 536 186 591 217.5 c 128,-1,10
 646 249 646 249 730 249 c 128,-1,11
 814 249 814 249 869 222 c 1,12,-1
 869 608 l 1,13,-1
 431 518 l 1,14,-1
 431 62 l 2,15,16
 431 -6 431 -6 355 -48 c 0,17,18
 308 -74 308 -74 221 -74 c 128,-1,19
 134 -74 134 -74 78 -42.5 c 128,-1,20
 22 -11 22 -11 22 35.5 c 128,-1,21
 22 82 22 82 78 113.5 c 128,-1,22
 134 145 134 145 217.5 145 c 128,-1,23
 301 145 301 145 356 118 c 1,24,-1
 356 549 l 2,25,26
 356 566 356 566 367.5 583.5 c 128,-1,27
 379 601 379 601 386.5 607.5 c 128,-1,28
 394 614 394 614 410 618 c 2,29,-1
 898 718 l 2,30,31
 904 719 904 719 917 719 c 0,32,33
 943 719 943 719 943 693 c 0,34,35
 943 688 943 688 944 684 c 2,36,-1
 944 678 l 1,0,1
631 190 m 1,37,-1
 631 160 l 1,38,-1
 682 160 l 1,39,-1
 682 190 l 1,40,-1
 631 190 l 1,37,-1
784 190 m 1,41,-1
 784 159 l 1,42,-1
 835 159 l 1,43,-1
 835 190 l 1,44,-1
 784 190 l 1,41,-1
632 130 m 1,45,-1
 632 100 l 1,46,-1
 683 100 l 1,47,-1
 683 130 l 1,48,-1
 632 130 l 1,45,-1
118 86 m 1,49,-1
 118 56 l 1,50,-1
 169 56 l 1,51,-1
 169 86 l 1,52,-1
 118 86 l 1,49,-1
271 86 m 1,53,-1
 271 55 l 1,54,-1
 322 55 l 1,55,-1
 322 86 l 1,56,-1
 271 86 l 1,53,-1
119 26 m 1,57,-1
 119 -4 l 1,58,-1
 170 -4 l 1,59,-1
 170 26 l 1,60,-1
 119 26 l 1,57,-1
784 100 m 1,61,-1
 835 100 l 1,62,-1
 835 130 l 1,63,-1
 784 130 l 1,64,-1
 784 100 l 1,61,-1
784 100 m 1,65,-1
 734 100 l 1,66,-1
 683 100 l 1,67,-1
 683 69 l 1,68,-1
 734 69 l 1,69,-1
 784 69 l 1,70,-1
 784 100 l 1,65,-1
271 -4 m 1,71,-1
 322 -4 l 1,72,-1
 322 26 l 1,73,-1
 271 26 l 1,74,-1
 271 -4 l 1,71,-1
271 -4 m 1,75,-1
 221 -4 l 1,76,-1
 170 -4 l 1,77,-1
 170 -35 l 1,78,-1
 221 -35 l 1,79,-1
 271 -35 l 1,80,-1
 271 -4 l 1,75,-1
EndSplineSet
Validated: 5
EndChar

StartChar: uni0314
Encoding: 788 788 141
Width: 312
Flags: W
AnchorPoint: "Anchor-3" 155 250 basemark 0
AnchorPoint: "Anchor-3" 155 400 mark 0
AnchorPoint: "Anchor-0" 155 410 mark 0
LayerCount: 2
Fore
SplineSet
155 296 m 128,-1,1
 141 296 141 296 132 305 c 128,-1,2
 123 314 123 314 122 329 c 128,-1,3
 121 344 121 344 131 354 c 128,-1,4
 141 364 141 364 155 364 c 128,-1,5
 169 364 169 364 179 354 c 128,-1,6
 189 344 189 344 189 330 c 128,-1,7
 189 316 189 316 179 306 c 128,-1,0
 169 296 169 296 155 296 c 128,-1,1
EndSplineSet
Validated: 1
EndChar

StartChar: uni0316
Encoding: 790 790 142
Width: 521
Flags: W
AnchorPoint: "Anchor-3" 260 250 basemark 0
AnchorPoint: "Anchor-3" 260 400 mark 0
AnchorPoint: "Anchor-0" 260 410 mark 0
LayerCount: 2
Fore
SplineSet
102 330 m 0,0,1
 101 344 101 344 111 354 c 128,-1,2
 121 364 121 364 135 364 c 128,-1,3
 149 364 149 364 159 354 c 128,-1,4
 169 344 169 344 169 330 c 128,-1,5
 169 316 169 316 159 306 c 128,-1,6
 149 296 149 296 135 296 c 128,-1,7
 121 296 121 296 111 306 c 0,8,9
 103 314 103 314 102 330 c 0,0,1
227 330 m 0,10,11
 226 344 226 344 236 354 c 128,-1,12
 246 364 246 364 260 364 c 128,-1,13
 274 364 274 364 284 354 c 128,-1,14
 294 344 294 344 294 330 c 128,-1,15
 294 316 294 316 284 306 c 128,-1,16
 274 296 274 296 260 296 c 128,-1,17
 246 296 246 296 236 306 c 0,18,19
 228 314 228 314 227 330 c 0,10,11
351 330 m 0,20,21
 350 344 350 344 360 354 c 128,-1,22
 370 364 370 364 384 364 c 128,-1,23
 398 364 398 364 408 354 c 128,-1,24
 418 344 418 344 418 330 c 128,-1,25
 418 316 418 316 408 306 c 128,-1,26
 398 296 398 296 384 296 c 128,-1,27
 370 296 370 296 360 306 c 0,28,29
 352 313 352 313 351 330 c 0,20,21
EndSplineSet
Validated: 1
EndChar

StartChar: uni0317
Encoding: 791 791 143
Width: 620
Flags: W
AnchorPoint: "Anchor-3" 309 250 basemark 0
AnchorPoint: "Anchor-3" 309 400 mark 0
AnchorPoint: "Anchor-0" 309 410 mark 0
LayerCount: 2
Fore
SplineSet
338 327 m 0,0,1
 338 328 338 328 338 329.5 c 128,-1,2
 338 331 338 331 338 333 c 0,3,4
 338 345 338 345 348 354 c 0,5,6
 358 364 358 364 372 364 c 128,-1,7
 386 364 386 364 396 354 c 128,-1,8
 406 344 406 344 406 330 c 128,-1,9
 406 316 406 316 396 306 c 128,-1,10
 386 296 386 296 372 296 c 128,-1,11
 358 296 358 296 348 306 c 0,12,13
 338 315 338 315 338 327 c 0,0,1
92 327 m 0,14,15
 92 328 92 328 92 329.5 c 128,-1,16
 92 331 92 331 92 333 c 0,17,18
 92 345 92 345 101 354 c 0,19,20
 111 364 111 364 125 364 c 128,-1,21
 139 364 139 364 149 354 c 128,-1,22
 159 344 159 344 159 330 c 128,-1,23
 159 316 159 316 149 306 c 128,-1,24
 139 296 139 296 125 296 c 128,-1,25
 111 296 111 296 101 306 c 0,26,27
 92 315 92 315 92 327 c 0,14,15
214 327 m 0,28,29
 214 328 214 328 214 329.5 c 128,-1,30
 214 331 214 331 214 333 c 0,31,32
 214 345 214 345 223 354 c 0,33,34
 233 364 233 364 247 364 c 128,-1,35
 261 364 261 364 271 354 c 128,-1,36
 281 344 281 344 281 330 c 128,-1,37
 281 316 281 316 271 306 c 128,-1,38
 261 296 261 296 247 296 c 128,-1,39
 233 296 233 296 223 306 c 0,40,41
 214 315 214 315 214 327 c 0,28,29
459 327 m 0,42,43
 459 328 459 328 459 329.5 c 128,-1,44
 459 331 459 331 459 333 c 0,45,46
 459 345 459 345 469 354 c 0,47,48
 479 364 479 364 493 364 c 128,-1,49
 507 364 507 364 517 354 c 128,-1,50
 527 344 527 344 527 330 c 128,-1,51
 527 316 527 316 517 306 c 128,-1,52
 507 296 507 296 493 296 c 128,-1,53
 479 296 479 296 469 306 c 0,54,55
 459 315 459 315 459 327 c 0,42,43
EndSplineSet
Validated: 1
EndChar
